<svg xmlns="http://www.w3.org/2000/svg" xmlns:xlink="http://www.w3.org/1999/xlink" viewBox="0 0 400.52 243.37"><defs><symbol id="Grass-edit" data-name="Grass-edit" viewBox="0 0 112.42 76.66"><path d="M23.65,13.08s6.53,1,6.85,6.21C31.49,18,31.49,11.45,23.65,13.08Z" fill="#fe8340" stroke="#fe8340" stroke-miterlimit="10"/><path d="M35.19,18.67s6.29,2.42,8.22,5.32C40,23.26,36.64,21.09,35.19,18.67Z" fill="#fe8340" stroke="#fe8340" stroke-miterlimit="10"/><path d="M73.85,54.49s-4.28-4-7-1.85C68.72,53.79,71.7,55.55,73.85,54.49Z" fill="#fe8340" stroke="#fe8340" stroke-miterlimit="10"/><path d="M20.66,7s-.85,4.68-3.6,6.83C17.53,10.38,18.36,8.61,20.66,7Z" fill="#fe8340" stroke="#fe8340" stroke-miterlimit="10"/><path d="M15.25,44.11S10,42.94,7.63,39.28C11.41,40,13.43,41.05,15.25,44.11Z" fill="#fe8340" stroke="#fe8340" stroke-miterlimit="10"/><path d="M12.77,59.15s3.64-4.57,1.3-7.15C13.07,54,11.54,57.1,12.77,59.15Z" fill="#fe8340" stroke="#fe8340" stroke-miterlimit="10"/><path d="M38.66,49.49s1.38,6.59,0,9.79C37.42,56,37.42,52,38.66,49.49Z" fill="#fe8340" stroke="#fe8340" stroke-miterlimit="10"/><path d="M9.49,48.32S6.07,54,1.12,52.26C2,53.66,8,56.18,9.49,48.32Z" fill="#fe8340" stroke="#fe8340" stroke-miterlimit="10"/><path d="M49.19,69.22s-6.6-.22-7.52-5.38C40.84,65.25,41.59,71.74,49.19,69.22Z" fill="#fe8340" stroke="#fe8340" stroke-miterlimit="10"/><path d="M26.48,37.56s-3.42,5.64-8.36,3.93C18.94,42.9,25,45.42,26.48,37.56Z" fill="#fe8340" stroke="#fe8340" stroke-miterlimit="10"/><path d="M89.11,22.38s-2.5,5.93-1.57,10.78C89.34,30.77,90,26.35,89.11,22.38Z" fill="#fe8340" stroke="#fe8340" stroke-miterlimit="10"/><path d="M21.13,67.78s1.39-5.68-1.82-7C19.24,63,19.15,66.43,21.13,67.78Z" fill="#fe8340" stroke="#fe8340" stroke-miterlimit="10"/><path d="M64.26,53.65s-3.42,5.65-8.37,3.94C56.72,59,62.75,61.52,64.26,53.65Z" fill="#fe8340" stroke="#fe8340" stroke-miterlimit="10"/><path d="M63.94,67.92s-1.5,7.73-5.38,8.19C58.33,72.26,61.51,69.35,63.94,67.92Z" fill="#fe8340" stroke="#fe8340" stroke-miterlimit="10"/><path d="M36.26,6.28s-2.42,5.33.48,7.26C37.22,11.36,38,8,36.26,6.28Z" fill="#fe8340" stroke="#fe8340" stroke-miterlimit="10"/><path d="M93.56,50.32s1.39-5.68-1.82-7C91.67,45.51,91.59,49,93.56,50.32Z" fill="#fe8340" stroke="#fe8340" stroke-miterlimit="10"/><path d="M82.4,54.48S80.91,62.21,77,62.67C76.79,58.82,80,55.92,82.4,54.48Z" fill="#fe8340" stroke="#fe8340" stroke-miterlimit="10"/><path d="M101.31,50.41s4,5.08,8.64,6.63C108.74,54.31,105.21,51.58,101.31,50.41Z" fill="#fe8340" stroke="#fe8340" stroke-miterlimit="10"/><path d="M79.79,35.17s3.95,5.08,8.63,6.63C87.21,39.07,83.68,36.34,79.79,35.17Z" fill="#fe8340" stroke="#fe8340" stroke-miterlimit="10"/><path d="M68.84,39.59s-6.6-.23-7.52-5.38C60.5,35.62,61.24,42.11,68.84,39.59Z" fill="#fe8340" stroke="#fe8340" stroke-miterlimit="10"/><path d="M32.12,44.47a11.33,11.33,0,0,0-1,7.87C32.9,50,33,48.44,32.12,44.47Z" fill="#fe8340" stroke="#fe8340" stroke-miterlimit="10"/><path d="M17,46.88S18.75,52.47,22.2,52C21.12,50,19.43,47,17,46.88Z" fill="#fe8340" stroke="#fe8340" stroke-miterlimit="10"/><path d="M70.14,17.57S67,23.51,63.85,25.08C65,21.81,67.56,18.71,70.14,17.57Z" fill="#fe8340" stroke="#fe8340" stroke-miterlimit="10"/><path d="M54.13,10.72s1.31,6.61-.11,9.8C52.82,17.27,52.86,13.24,54.13,10.72Z" fill="#fe8340" stroke="#fe8340" stroke-miterlimit="10"/><path d="M49.69,7.3s-5.27,4.2-8.75,4.4C43.27,9.15,46.87,7.33,49.69,7.3Z" fill="#fe8340" stroke="#fe8340" stroke-miterlimit="10"/><path d="M59.15,14l1.64,2.72,3.08,2A6.15,6.15,0,0,0,59.15,14Z" fill="#fe8340" stroke="#fe8340" stroke-miterlimit="10"/><path d="M54.18.71l1.45,3.62,2.66,2.91S58.29,1.67,54.18.71Z" fill="#fe8340" stroke="#fe8340" stroke-miterlimit="10"/><path d="M85.22,43s-1.56,4.75-4.68,6.31C81.68,46.06,82.64,44.16,85.22,43Z" fill="#fe8340" stroke="#fe8340" stroke-miterlimit="10"/><path d="M60.64,65.39s-6.22,2.21-9-2.25C51.42,64.76,54.5,70.52,60.64,65.39Z" fill="#fe8340" stroke="#fe8340" stroke-miterlimit="10"/><path d="M24.7,28.12s-3.17,5.95-6.29,7.51C19.54,32.36,22.12,29.27,24.7,28.12Z" fill="#fe8340" stroke="#fe8340" stroke-miterlimit="10"/><path d="M37.07,62.05S33.65,67.7,28.7,66C29.53,67.39,35.55,69.91,37.07,62.05Z" fill="#fe8340" stroke="#fe8340" stroke-miterlimit="10"/><path d="M83,68.54s-6.22,2.21-9-2.25C73.74,67.9,76.81,73.67,83,68.54Z" fill="#fe8340" stroke="#fe8340" stroke-miterlimit="10"/><path d="M67.5,61a12,12,0,0,1,1.7,6.68C67,65,67.09,63.77,67.5,61Z" fill="#fe8340" stroke="#fe8340" stroke-miterlimit="10"/><path d="M56.29,35.29S53.12,41.23,50,42.8C51.14,39.53,53.72,36.43,56.29,35.29Z" fill="#fe8340" stroke="#fe8340" stroke-miterlimit="10"/><path d="M93.82,55s-3.18,5.94-6.3,7.51C88.66,59.27,91.24,56.17,93.82,55Z" fill="#fe8340" stroke="#fe8340" stroke-miterlimit="10"/><path d="M50.75,55.67,47.6,58l-2.15,3.31S50.84,59.9,50.75,55.67Z" fill="#fe8340" stroke="#fe8340" stroke-miterlimit="10"/><path d="M11.06,23.28s-3.42,5.65-8.37,3.94C3.52,28.63,9.55,31.14,11.06,23.28Z" fill="#fe8340" stroke="#fe8340" stroke-miterlimit="10"/><path d="M51.09,46.55l1.45,3.62,2.66,2.91S55.2,47.51,51.09,46.55Z" fill="#fe8340" stroke="#fe8340" stroke-miterlimit="10"/><path d="M54.56,30.81s-4.85-.87-7.68-2.92C50.31,27.4,52.36,29,54.56,30.81Z" fill="#fe8340" stroke="#fe8340" stroke-miterlimit="10"/><path d="M73.53,2.82s6.29,2.42,8.22,5.32C78.37,7.42,75,5.24,73.53,2.82Z" fill="#fe8340" stroke="#fe8340" stroke-miterlimit="10"/><path d="M58.79,30.86s1.16-6.54-2-8C56.63,25.05,56.87,29.43,58.79,30.86Z" fill="#fe8340" stroke="#fe8340" stroke-miterlimit="10"/><path d="M62.82,5.79l1.46,3.62,2.66,2.91S66.94,6.75,62.82,5.79Z" fill="#fe8340" stroke="#fe8340" stroke-miterlimit="10"/><path d="M29.64,31.7s2.22-6.22,7.41-5.53C36,25,29.55,23.69,29.64,31.7Z" fill="#fe8340" stroke="#fe8340" stroke-miterlimit="10"/><path d="M42.38,46.3s6.29,2.42,8.23,5.33C47.22,50.9,43.83,48.72,42.38,46.3Z" fill="#fe8340" stroke="#fe8340" stroke-miterlimit="10"/><path d="M41.51,30.75,43,34.38l2.66,2.91S45.62,31.72,41.51,30.75Z" fill="#fe8340" stroke="#fe8340" stroke-miterlimit="10"/><path d="M69.65,24.17s.85,6.55-4.08,8.3C67.09,33.06,73.37,31.26,69.65,24.17Z" fill="#fe8340" stroke="#fe8340" stroke-miterlimit="10"/><path d="M58.78,48.86s9.26-1.35,9.84-4.79C66.44,44.51,59.63,46.63,58.78,48.86Z" fill="#fe8340" stroke="#fe8340" stroke-miterlimit="10"/><path d="M24.84,54.71s6.3,2.42,8.23,5.32C29.68,59.31,26.3,57.13,24.84,54.71Z" fill="#fe8340" stroke="#fe8340" stroke-miterlimit="10"/><path d="M16.74,23.43s-.6,6.72-2.86,9.37C13.65,29.35,14.82,25.49,16.74,23.43Z" fill="#fe8340" stroke="#fe8340" stroke-miterlimit="10"/><path d="M37.78,33.3s-6.89,1.52-6.83,5C33,37.46,37.36,35.66,37.78,33.3Z" fill="#fe8340" stroke="#fe8340" stroke-miterlimit="10"/><path d="M79.31,30.2l-3.09,2.39-2.06,3.35S79.51,34.42,79.31,30.2Z" fill="#fe8340" stroke="#fe8340" stroke-miterlimit="10"/><path d="M76,40.18s.31,6.73-1.58,9.67C73.72,46.45,74.36,42.48,76,40.18Z" fill="#fe8340" stroke="#fe8340" stroke-miterlimit="10"/><path d="M98,30.11s-1.49,7.73-5.38,8.19C92.4,34.45,95.57,31.54,98,30.11Z" fill="#fe8340" stroke="#fe8340" stroke-miterlimit="10"/><path d="M85.33,14.29s6.54,1,6.86,6.2C93.17,19.19,93.17,12.66,85.33,14.29Z" fill="#fe8340" stroke="#fe8340" stroke-miterlimit="10"/><path d="M21.46,19.39s4.25,1.32,6.19,4.22C24.26,22.88,22.91,21.81,21.46,19.39Z" fill="#fe8340" stroke="#fe8340" stroke-miterlimit="10"/><path d="M43.17,14.68l1.45,3.62,2.66,2.91S47.28,15.64,43.17,14.68Z" fill="#fe8340" stroke="#fe8340" stroke-miterlimit="10"/><path d="M109.74,29.26s-6.53,1-8.42-3.85C100.79,27,102.75,33.18,109.74,29.26Z" fill="#fe8340" stroke="#fe8340" stroke-miterlimit="10"/><path d="M44.31,38.39S40.89,44,36,42.33C36.77,43.73,42.8,46.25,44.31,38.39Z" fill="#fe8340" stroke="#fe8340" stroke-miterlimit="10"/><path d="M80.68,26.57a22.55,22.55,0,0,1-4.79-7.07C79.46,20.93,79.51,23.21,80.68,26.57Z" fill="#fe8340" stroke="#fe8340" stroke-miterlimit="10"/><path d="M79.1,13.53s-4.28-4-7-1.85C74,12.83,77,14.6,79.1,13.53Z" fill="#fe8340" stroke="#fe8340" stroke-miterlimit="10"/></symbol><symbol id="Grass-tall-edit" data-name="Grass-tall-edit" viewBox="0 0 42.61 74.17"><path d="M0,6.64c2.52,3.58,5.27,7,7.74,10.6a52.27,52.27,0,0,1,6.18,11.83c.38,1,.6,2.15.88,3.23s.5,2.11.7,3.17a50.25,50.25,0,0,1,.74,6.22,71.19,71.19,0,0,1-.47,12.89,109.58,109.58,0,0,1-2.88,14.47c-.28,1,1.32,1.64,1.58.59,2.12-8.6,3.62-17.43,3-26.31a51.16,51.16,0,0,0-.87-6.41,36.32,36.32,0,0,0-1.74-6.24c-.83-2.07-1.64-4.14-2.64-6.13A59,59,0,0,0,9,18.83C6.21,14.6,3,10.72,0,6.62c0,0,0,0,0,0Z" fill="#fe8340"/><path d="M28.78,66.3a77.94,77.94,0,0,1,1.56-22.18c.39-1.78.91-3.53,1.26-5.32a54.61,54.61,0,0,1,1.33-5.33,103,103,0,0,1,3.94-10.41c1.73-4,3.67-7.89,5.71-11.73.13-.25-.23-.52-.37-.26a174.57,174.57,0,0,0-9.88,20.71c-.69,1.74-1.34,3.49-2,5.23a39.52,39.52,0,0,0-1.6,5.34A83.41,83.41,0,0,0,26.9,53.47a79.34,79.34,0,0,0-.08,13.17,1,1,0,0,0,1.15.81,1,1,0,0,0,.81-1.15Z" fill="#fe8340"/><path d="M23.57,73a99.76,99.76,0,0,1,0-28.82,142.61,142.61,0,0,1,2.49-14.67c1.15-4.78,2.57-9.48,4.19-14.12C32,10.27,34.1,5.22,36.37.26c.1-.24-.27-.37-.39-.14A181.18,181.18,0,0,0,25.43,27.77c-1.37,4.78-2.6,9.61-3.52,14.49A88.8,88.8,0,0,0,20.54,56.9a92.78,92.78,0,0,0,1.07,16.48,1,1,0,0,0,2-.35Z" fill="#fe8340"/></symbol></defs><g id="Layer_2" data-name="Layer 2"><g id="Icons"><path d="M234.05,16.07A16.47,16.47,0,0,0,225.68,21a29.73,29.73,0,0,0-3.27,5.18,19.15,19.15,0,0,1-3.26,3.8,16.77,16.77,0,0,0-3.59,4.72,8.62,8.62,0,0,0-.76,3.15,3.63,3.63,0,0,0,.89,2.63,4.63,4.63,0,0,0,2.54,1.46,5.34,5.34,0,0,0,3.64-.82A48.28,48.28,0,0,0,225.8,38c1.8-1.33,4.21-1.55,6.33-2a29,29,0,0,1,3.19-.68,1.41,1.41,0,0,0,.54,0,4.87,4.87,0,0,1,2,.29c5.06,2,7.9,7.07,10.57,11.47a243,243,0,0,0,18.49,25.78c2.14,2.7,4.23,5.31,6.21,8.13a15.08,15.08,0,0,1,2.33,3.72c-3.31,7.21-4.27,14.74-.2,22a17.43,17.43,0,0,0,4.22,4.91c4.66,19.11.49,40.27-2.83,59.28-.33,1.89-.55,4.05-1,6.09a10,10,0,0,1-2.37,4.83,45.29,45.29,0,0,1-4.83,3.65,19.24,19.24,0,0,0-1.81,1.54,1.45,1.45,0,0,0-.2,1.53,1.84,1.84,0,0,0,1.09.94,18,18,0,0,0,2.26.48,34.7,34.7,0,0,0,8.39.51l2.9-.16a1.6,1.6,0,0,0,1.46-1.47,29.23,29.23,0,0,1-.15-4.77c.73-4.63,2.64-8.88,3.12-13.62.73-7.29.92-14.83,2.17-22,.76-4.37,2.43-8.47,3.43-12.78s1.12-8.18,2.77-12.12c.38.57.77,1.14,1.18,1.7a68.18,68.18,0,0,1,9.23,17.34c1.21,3.49,2.06,7.09,3.43,10.53,2.62,6.6,5.79,13,8.05,19.71.87,2.6,1.78,5.1,1.3,7.86a31.14,31.14,0,0,1-1,3.42s-.31,1-.35,1.25a1.48,1.48,0,0,0,1,1.71,4.88,4.88,0,0,0,1.75.12c.66-.06,1.36-.21,1.88-.25,2-.15,4-.1,6-.23a1.52,1.52,0,0,0,1.41-1,1.82,1.82,0,0,0,.13-.88,10.32,10.32,0,0,0-.24-1,29.33,29.33,0,0,0-.66-3.95,58.8,58.8,0,0,0-5.58-15.4c-5.95-10.87-9.31-23.43-12.66-35.29a83.72,83.72,0,0,1-2.51-12.11c-.07-.52-.13-1-.15-1.55a6.81,6.81,0,0,0,1.84.68,22.3,22.3,0,0,0,8-.5c2-.4,3.92-1.06,5.89-1.51l.79-.18a7.27,7.27,0,0,1,.55,1.8c.24,1.17.37,2.39.64,3.4a21.78,21.78,0,0,0,4.74,9l0,.06a1.45,1.45,0,0,0,0,.92,79.35,79.35,0,0,1,3.7,16.19c.37,3.34.34,6.7.55,10.05.32,5.1,1.13,11.48,1,16.59-.11,3.32-.42,4.57-2.79,7.16a7.84,7.84,0,0,0-.95,1.65c-.64,1.43-1.35,3.47-1.52,4a1.64,1.64,0,0,0,.07,1.21,2.26,2.26,0,0,0,1,.94,7.67,7.67,0,0,0,1.6.52,18.8,18.8,0,0,0,5.4.32,11.05,11.05,0,0,0,2-.12,2,2,0,0,0,1-.55,6,6,0,0,0,1.28-2.63c.31-1.22.43-2.62.59-3.55,1.83-10.33-.84-20.72.42-31,.44-3.62,2.24-6.53,3.65-9.71a11.37,11.37,0,0,1,2.51,4.14c.87,2.55.83,5.32,1,8A90,90,0,0,0,351,166.6c1.11,4.54,3.77,7.65,6.21,11.49,1.19,1.86,1.72,4.12,2.67,6.11a17.27,17.27,0,0,0,1.07,2.18A1.5,1.5,0,0,0,362,187a1.45,1.45,0,0,0,1.32-.68c.21-.3.83-1.82.92-2,.81-1.66,1.64-3.34,2.33-5a9.51,9.51,0,0,0,.66-1.92A1.9,1.9,0,0,0,367,176a5,5,0,0,0-1.17-1.17,13.11,13.11,0,0,1-1.27-1,15.21,15.21,0,0,1-2.79-4.24c-2.29-4.83-2.86-10.11-3.47-15.35a112,112,0,0,1-1-20.95,1.54,1.54,0,0,0-.1-.64c-1.39-3.49-4.09-6.12-6.74-8.79-2.33-2.35-4.64-4.72-5.57-8a18,18,0,0,1-.13-7.11,65.63,65.63,0,0,0,.86-8,22.56,22.56,0,0,0-.54-4.76c.39.57.77,1.17,1.13,1.8,2.74,4.75,4.23,10.17,7,14.95a31.88,31.88,0,0,0,4,5.09,18.83,18.83,0,0,1,2.84,3.89,9.92,9.92,0,0,0-2,5.37,9.06,9.06,0,0,0,2.4,6.2,27.05,27.05,0,0,0,5.71,4.85,1.47,1.47,0,0,0,1.55.05,1.45,1.45,0,0,0,.73-1.36c-.22-3.62.52-7,.3-9.61a7,7,0,0,0-1.69-4.26,8.33,8.33,0,0,0-4.25-2.32,21.75,21.75,0,0,0-3.38-4.75,28.65,28.65,0,0,1-3.63-4.61c-2.74-4.78-4.23-10.2-7-15-1.95-3.39-4.26-5.79-6.82-8.71a33.73,33.73,0,0,0-4.92-7c-5.27-5.71-12-6-19.11-7.46a36.5,36.5,0,0,1-11.38-4.42C300,64.88,294.63,59.5,288.52,55c-5.66-4.17-11.61-8-17.14-12.3-5.1-4-9.65-8.53-14.6-12.67-2.45-2.06-5.09-3.93-7.52-6A17.33,17.33,0,0,0,251,21.47a8,8,0,0,0,1.09-3.11,5.86,5.86,0,0,0-.18-1.77,2.24,2.24,0,0,0-.74-1.15,1.4,1.4,0,0,0-1.33-.25c-.08,0-.44.19-.57.25a10,10,0,0,1-1,.39c-1,.31-2,.53-3,.9a7.09,7.09,0,0,0-2,1.11,13,13,0,0,0-1.88-1.12,10.07,10.07,0,0,0-4.32-1c-.12-.36-.25-.74-.39-1.12a6.33,6.33,0,0,1-.49-1.69,1.45,1.45,0,0,0-1.51-1.41A1.46,1.46,0,0,0,233.21,13a8,8,0,0,0,.49,2.11C233.81,15.45,233.93,15.77,234.05,16.07ZM283,114c3.61,18.64-.28,39-3.48,57.28-.34,2-.57,4.18-1.08,6.29a13.08,13.08,0,0,1-3.13,6.19A33.4,33.4,0,0,1,271,187a33.15,33.15,0,0,0,7,.33l1.48-.08a16,16,0,0,1,0-3.85c.72-4.58,2.62-8.77,3.09-13.46.74-7.35.93-15,2.2-22.24.77-4.43,2.45-8.58,3.46-12.94,1.2-5.14,1.29-9.53,3.68-14.2a14.27,14.27,0,0,0-1.45-1.57A48.32,48.32,0,0,0,283,114Zm49.43,17.34a80.25,80.25,0,0,1,2.79,13.51c.38,3.39.36,6.8.57,10.2.32,5.18,1.14,11.67,1,16.87-.13,4.2-.56,5.77-3.55,9a4.26,4.26,0,0,0-.45.88c-.33.73-.72,1.8-1,2.59l.22.07a16,16,0,0,0,4.58.22h1.14a4.4,4.4,0,0,0,.38-1.06c.29-1.16.39-2.47.55-3.35,1.81-10.28-.86-20.62.39-30.87.52-4.23,2.74-7.57,4.26-11.4a36.36,36.36,0,0,0-3.47-2.27C337.33,134.24,334.73,132.88,332.42,131.29Zm7-42.16a31.48,31.48,0,0,0-4.53-6.46c-4.81-5.21-11.06-5.24-17.54-6.57a39.21,39.21,0,0,1-12.3-4.78c-6.62-4-12.1-9.41-18.28-14-5.68-4.18-11.65-8-17.21-12.35-5.12-4-9.7-8.57-14.67-12.74-2.88-2.41-6-4.56-8.77-7.09a1.49,1.49,0,0,1-.47-1.16,1.45,1.45,0,0,1,.6-1.11,10.14,10.14,0,0,0,2.18-2.86,7.55,7.55,0,0,0,.66-1.41c-.94.29-1.92.49-2.83.83a3.48,3.48,0,0,0-1.73,1.21,1.48,1.48,0,0,1-1,.61,1.46,1.46,0,0,1-1.15-.37,9.75,9.75,0,0,0-2.31-1.57,7.55,7.55,0,0,0-3.69-.71,1.46,1.46,0,0,1-.3.07,1.77,1.77,0,0,1-.4,0,13.2,13.2,0,0,0-7.8,4.22A26.9,26.9,0,0,0,225,27.6,22.25,22.25,0,0,1,221.23,32a13.85,13.85,0,0,0-3,3.88,6.15,6.15,0,0,0-.47,1.65,3,3,0,0,0,0,.6.5.5,0,0,0,.06.28,1.91,1.91,0,0,0,1,.59,2.33,2.33,0,0,0,1.62-.46,41.5,41.5,0,0,0,3.68-2.95c2.12-1.56,4.91-2,7.4-2.53a28.36,28.36,0,0,1,3.67-.7,12.73,12.73,0,0,0,1.6-.36,16.17,16.17,0,0,0,1.69-.59,15.65,15.65,0,0,0,3.28-1.92,15.26,15.26,0,0,1-2.31,3.27l-.13.14c5.45,2.29,8.73,7.71,11.64,12.53a242.3,242.3,0,0,0,18.28,25.48c2.18,2.73,4.31,5.4,6.32,8.26,1.17,1.66,2.48,3.25,2.94,5.28a1.47,1.47,0,0,1-.29,1.23h0c-2.95,6.37-4,13-.36,19.39a14.54,14.54,0,0,0,3.8,4.33l.12.09c.79.62,1.63,1.18,2.48,1.73,2.75,1.75,5.68,3.32,8.2,5.63a18.07,18.07,0,0,1,2.29,2.6,2.48,2.48,0,0,1,.19.26c.85,1.17,1.62,2.4,2.49,3.59a70.91,70.91,0,0,1,9.63,18.1c1.2,3.44,2,7,3.38,10.41,2.65,6.65,5.83,13.07,8.11,19.86,1,3.07,2,6,1.41,9.3a21.93,21.93,0,0,1-.83,2.95c.38-.05.73-.11,1-.13,1.54-.11,3.08-.11,4.62-.17a27,27,0,0,0-.58-3.35,55.82,55.82,0,0,0-5.29-14.63c-6.06-11.06-9.5-23.83-12.92-35.91a87.9,87.9,0,0,1-2.59-12.53,15.09,15.09,0,0,1-.14-3.29c0-.12.1-.89.14-1a.3.3,0,0,1,0-.1c.12-.65.21-1.3.29-2,.14-1.14.25-2.26.28-3.42a40.35,40.35,0,0,0-.29-5.89,35.1,35.1,0,0,1,2.2,6.91,21,21,0,0,1,.41,3.44c0,.09,0,.17,0,.25l.47.21a7.67,7.67,0,0,0,1.7.77,19.42,19.42,0,0,0,6.95-.5c1.8-.36,3.54-.93,5.32-1.37-.31-.45-.6-.9-.85-1.35a14.6,14.6,0,0,1-1.88-6,16,16,0,0,1,2.52-9.59,15.35,15.35,0,0,0-.88,9.32,13.93,13.93,0,0,0,2.37,4.87,20.35,20.35,0,0,0,2.36,2.64l.06.06h0l.07.08h0a7.25,7.25,0,0,1,1.4,3c.34,1.33.46,2.8.78,4a18.93,18.93,0,0,0,4.08,7.78c2.72,3,6.82,5,10.58,7.18a33.82,33.82,0,0,1,4.51,3.09,1.33,1.33,0,0,1,.26.21,15.18,15.18,0,0,1,4.79,6.73c.95,2.8,1,5.81,1.18,8.71a85.15,85.15,0,0,0,1.78,14c1,4.21,3.57,7,5.84,10.61a37.67,37.67,0,0,1,2.44,5.54c.63-1.3,1.25-2.6,1.79-3.94l.33-.82c-.11-.09-.23-.17-.35-.25a11.47,11.47,0,0,1-1.38-1.08,18,18,0,0,1-3.35-5c-2.42-5.12-3.09-10.7-3.73-16.26a115.91,115.91,0,0,1-1-21.14c-1.28-3-3.68-5.2-6-7.51-2.68-2.7-5.24-5.5-6.31-9.27a21,21,0,0,1-.22-8.28,63.48,63.48,0,0,0,.84-7.6,25.75,25.75,0,0,0-3.16-11.45A1,1,0,0,1,339.43,89.13Zm22.89,34.54a4.7,4.7,0,0,1,2.84,1.77,6.2,6.2,0,0,1,.65,3.63c0,1.55-.24,3.27-.33,5.1a18,18,0,0,1-2.81-2.65A6.24,6.24,0,0,1,361,127.3a6.94,6.94,0,0,1,1.37-3.63ZM275.48,84.76a1.52,1.52,0,0,0,.23.82,1.46,1.46,0,0,0,1.24.68v0a1.45,1.45,0,0,1-1.37-1.14A3.37,3.37,0,0,0,275.48,84.76Z" transform="translate(0.2 -9.83)" fill="#fe8340" stroke="#fe8340" stroke-miterlimit="10" stroke-width="0.25" fill-rule="evenodd"/></g></g><g id="Layer_1" data-name="Layer 1"><g id="Icons-2" data-name="Icons"><path d="M54.58,10a1.43,1.43,0,0,0-.62.24,1.72,1.72,0,0,0-.27.27,1.09,1.09,0,0,0-.19.33,1.35,1.35,0,0,0-.09.65,1.43,1.43,0,0,0,.24.62l.06.08a32.81,32.81,0,0,1,3.45,5,29.47,29.47,0,0,0-8,3.92c-2.42,1.77-4.07,4.22-6,6.47-3.38,1.35-8.12,1.38-11.44,2.63a8.66,8.66,0,0,0-1.91,1c-6.37,0-10.43-1.49-12.39-4.56s-1.75-7.88.18-13.82a1.34,1.34,0,0,0-2.35-1.21c-5.69,7.74-7.45,14.07-6,19,1.29,4.22,5,7.58,11,10-2.51,1.17-5.09,2.81-6.42,4.86a7.34,7.34,0,0,0-1,2.71,3.44,3.44,0,0,0,.43,2.4,2.74,2.74,0,0,0,2.5,1.27,25.71,25.71,0,0,0,2.55-.48,17.51,17.51,0,0,1,4.1.31,8.6,8.6,0,0,0,5.06-.65c.89-.44,1.66-1.06,2.51-1.56.11,1,.22,1.91.39,2.85a8.35,8.35,0,0,0,1.72,3.77,12.92,12.92,0,0,1,1.8,2.73,2.24,2.24,0,0,1,.1.83c0,.8,0,1.74-.06,2.61a5.37,5.37,0,0,0,.75,3.21,1.42,1.42,0,0,0,1.19.52c.69,0,4-.36,4.82-.42a29.37,29.37,0,0,0,5.17-1.2,5.52,5.52,0,0,1,3.95.15,13.76,13.76,0,0,1,5,4.32,52.49,52.49,0,0,0,4.76,5.74,57.85,57.85,0,0,0,8.88,6.8,22.14,22.14,0,0,0,.16,3.9c.34,2.38,1.33,4.62,1.86,7a17.94,17.94,0,0,1,0,7.65,8.24,8.24,0,0,1-2.71,4.88c-.8.6-1.71.91-2.53,1.45a3.64,3.64,0,0,0-1.12,1.2,1.5,1.5,0,0,0,0,1.21,1.35,1.35,0,0,0,.44.55,6.11,6.11,0,0,0,1,.39h0a9.64,9.64,0,0,0,2,.39,41.71,41.71,0,0,0,4.61,0,1.33,1.33,0,0,0,.55,1.24,11.91,11.91,0,0,0,3.65,1.69c3.42,1,8.39.21,11-2.35a5.46,5.46,0,0,0,1-1.5,7.22,7.22,0,0,1,.75-1.33l.77-.13a2.13,2.13,0,0,0,1.19-.66,1.65,1.65,0,0,0,.27-1.45,12.78,12.78,0,0,0-.87-2c-.84-1.86-2-3.53-2.21-5.61-.58-5.09-.15-10.46-.06-15.58.06-2.81,0-6.27,1.81-8.62l.07-.09A3,3,0,0,1,92.27,73c1.31,0,2.69.21,3.62.27,6.76.41,13.13,2.89,19.92,2.85,1.86,0,3.66.17,5.39.08a10.46,10.46,0,0,0,5.65-1.79c2.74-1.91,5.15-4.3,7.78-6.35.14,3.14.59,6.44.92,9.42a29.59,29.59,0,0,1,.35,5.87A27.25,27.25,0,0,1,132.17,94a17.67,17.67,0,0,1-2.77,4.06,28.23,28.23,0,0,1-3,2.2c-.74.58-1.32,1.32-2,2s-1.54,1.18-2.3,1.77a8.92,8.92,0,0,0-.94.71,1.87,1.87,0,0,0-.41.63,1.38,1.38,0,0,0,0,1.05,2.2,2.2,0,0,0,.47.61,5.3,5.3,0,0,0,.83.59,8.57,8.57,0,0,0,3.47.62,35.16,35.16,0,0,0,7.88-.31c1.6-.32,3-.73,4-2.15a11.53,11.53,0,0,0,1.45-3.76A10.4,10.4,0,0,1,140,99c2.25-3.62,4.51-7.25,6.89-10.78,1.32-2,3.17-3.68,4-5.94a12.22,12.22,0,0,0,.58-2.33c2.19,5.76,3.92,11.33,1.6,17.51a29.24,29.24,0,0,1-5.1,8.44c-.56.67-1.87,1.81-2.64,2.88a4,4,0,0,0-.82,1.92,1.33,1.33,0,0,0,.89,1.4,28.76,28.76,0,0,0,3.19.61,16.2,16.2,0,0,0,9.15-2.1,5,5,0,0,0,2-2.2,12.09,12.09,0,0,1,1-1.82l0,0,.63.09a3.22,3.22,0,0,0,1,0,1.35,1.35,0,0,0,1.08-.93,3.28,3.28,0,0,0,.13-1.07c0-.64-.09-1.51-.09-1.6-.11-2.35-.18-5.26-.18-7.62v0a29.58,29.58,0,0,1,.71-7.79c.67-2.81,1.79-5.37,2-8.3s-.48-6.12-.84-9.14a27.06,27.06,0,0,1,.43-8.75c.93-4.33,2.78-8.69,3.93-13.08a19.11,19.11,0,0,1,.33,5c-.23,3.27-1.21,6.4-1.71,9.62-.12.84-.22,1.67-.26,2.52a24.13,24.13,0,0,0,.19,4.24c.42,3.21,1.31,6.41,1.83,9.54-.26-3.15-.88-6.39-1-9.61a23,23,0,0,1,.14-4.07c.11-.8.27-1.58.45-2.36.75-3.24,2-6.36,2.45-9.66a21.1,21.1,0,0,0,0-5.89A35,35,0,0,0,170.52,42a21.91,21.91,0,0,0-2.49-9.8,34.55,34.55,0,0,0-6.65-9.17c-3.11-3.14-6.18-6.95-10.25-8.88-5-2.37-11.32-2.78-16.75-2.53-8.49.39-16.95,2.11-25.45,2.09a74,74,0,0,1-12.08-1c-3.23-.55-6.37-1.45-9.66-1.58C79,10.8,70.6,12.81,62.8,15.32a21.23,21.23,0,0,0-2-1.84,29.12,29.12,0,0,0-5.42-3.37l-.13-.06A1.38,1.38,0,0,0,54.58,10Zm97.13,62.47c.43,1.3.75,2.67,1.14,3.69,2.85,7.43,5.64,14.41,2.7,22.27a32,32,0,0,1-5.56,9.23c-.46.54-1.4,1.39-2.14,2.25l1,.17a13.41,13.41,0,0,0,7.5-1.76,2.9,2.9,0,0,0,1.18-1.47,11.19,11.19,0,0,1,1-1.82,2.28,2.28,0,0,1,2.27-1.15l0-.74c-.11-2.38-.18-5.33-.18-7.71a32.23,32.23,0,0,1,.78-8.48c.64-2.66,1.73-5.08,1.92-7.85s-.49-5.79-.84-8.65a29.66,29.66,0,0,1,.48-9.63c1.31-6.13,4.58-12.32,4.86-18.6a19,19,0,0,0-2.2-8.78,32,32,0,0,0-6.15-8.46c-2.9-2.92-5.71-6.56-9.5-8.35-4.61-2.19-10.46-2.5-15.47-2.27-8.54.39-17,2.11-25.59,2.09A76.2,76.2,0,0,1,96.4,15.35c-3.11-.53-6.15-1.42-9.32-1.55-7.53-.3-15.24,1.49-22.47,3.76A11.36,11.36,0,0,1,66.4,27C65,32.3,59.51,37.19,50.65,39.69c8.26-3,13.28-7.88,14.27-13a10,10,0,0,0-2.63-8.6,1.32,1.32,0,0,1-.94-.88.74.74,0,0,1,0-.14l-.48-.44a20.92,20.92,0,0,0-1.66-1.32,20.58,20.58,0,0,1,1,2,1,1,0,0,1,.09.21h0A14.36,14.36,0,0,1,61,19.7a7,7,0,0,1-.55,5.17,8.13,8.13,0,0,1-4.24,3.46c-2.68,1.12-6.63,1.72-11.94,1.72-3.41,1.37-8.2,1.41-11.57,2.68a6,6,0,0,0-1.59.89,1,1,0,0,1-.31.18l-.4.25c-.26.17-.52.3-.78.47-.55.35-1.05.67-1.62,1.07l-1.19.81.54-1.35c.18-.42.35-.81.53-1.19-6.46-.35-10.55-2.41-12.68-5.76a13.56,13.56,0,0,1-1.72-8.47C11.55,23.58,11,27,11.9,29.87c1.3,4.3,5.68,7.3,12.64,9.4a1.34,1.34,0,0,1,0,2.56c-2.7.89-6.77,2.57-8.43,5.13a4.46,4.46,0,0,0-.58,1.35c-.08.3-.18.61,0,.82s.17.07.26.07a3.12,3.12,0,0,0,.52-.08c.61-.13,1.23-.33,1.74-.38a20.47,20.47,0,0,1,4.7.31,6.11,6.11,0,0,0,3.56-.39c1.06-.53,2-1.32,3-1.85a7.25,7.25,0,0,1,1.23-.54,1.7,1.7,0,0,1,.91,0,1.39,1.39,0,0,1,.75.59,2,2,0,0,1,.23.58,9.55,9.55,0,0,1,.14,1.07c.13,1.12.24,2.24.44,3.34A6.61,6.61,0,0,0,34.65,55a12.72,12.72,0,0,1,1.71,2.75,10.41,10.41,0,0,1,.29,3.83,12.32,12.32,0,0,0,0,1.62v.05l3.85-.35a26.25,26.25,0,0,0,4.7-1.12,8.08,8.08,0,0,1,5.74.32,16.39,16.39,0,0,1,5.93,5.08,49.5,49.5,0,0,0,4.5,5.47,55.92,55.92,0,0,0,9.11,6.87h0C72,80.47,73.6,81.15,75,82.2a10.34,10.34,0,0,1,3.92,6.59c.45,2.24.44,4.69.69,7.08s.83,5.35.35,7.88c-.44,2.29-1.95,3.84-3.63,5.3l-.55.52-.09.09-.13.12a15.51,15.51,0,0,0,1.52.54c2.59.78,6.36.24,8.33-1.7a5.39,5.39,0,0,0,.86-1.44,5.56,5.56,0,0,1,1-1.49,2.23,2.23,0,0,1,1-.55h0l-.27-.57c-1-2.12-2.16-4-2.43-6.42-.6-5.2-.17-10.7-.08-15.93.06-3.33.24-7.38,2.34-10.18h0s0,0,0,0h0a4.29,4.29,0,0,1,.51-.53,12.4,12.4,0,0,0,1.51-2.06,18.55,18.55,0,0,0,1.47-3,39.1,39.1,0,0,0,2.23-10.14A38.79,38.79,0,0,1,93.07,67a18.53,18.53,0,0,1-1,3.31c1.46,0,3,.21,4,.27,6.7.41,13,2.89,19.73,2.85,1.82,0,3.57.17,5.27.08a7.83,7.83,0,0,0,4.26-1.32c2.71-1.87,5.08-4.24,7.68-6.27a22.91,22.91,0,0,1,2.09-1.64l.12-.07a7.27,7.27,0,0,0,1.59-1.74A14.91,14.91,0,0,0,138.16,60a21.65,21.65,0,0,0,1.55-5.7,20.44,20.44,0,0,1-.36,7.37,12,12,0,0,1-.8,2.23c.23.13.45.28.61.35a24.46,24.46,0,0,0,2.93,1.06c2.5.78,5.68,1.54,7.61,3.44a8.51,8.51,0,0,1,1.77,3c.07.19.14.38.2.58ZM71.09,82.94a16.68,16.68,0,0,0,.16,2c.32,2.31,1.31,4.48,1.82,6.75a20.66,20.66,0,0,1,0,8.82,10.83,10.83,0,0,1-3.69,6.43,6.64,6.64,0,0,1-.65.43c1.86,0,3.71-.17,5.58-.08l.26-.25c1.22-1.06,2.44-2.11,2.76-3.79.43-2.27-.15-4.82-.38-7.09s-.22-4.67-.66-6.84a7.71,7.71,0,0,0-2.91-5A16.32,16.32,0,0,0,71.09,82.94Zm66.17-16.69a106.14,106.14,0,0,0,1,10.89,32.61,32.61,0,0,1,.35,6.4,29.86,29.86,0,0,1-4,11.76,20.92,20.92,0,0,1-3.22,4.66,30.88,30.88,0,0,1-3.2,2.42c-.68.54-1.2,1.23-1.83,1.82a16,16,0,0,1-1.65,1.3c.36,0,.72,0,1.07,0a32.79,32.79,0,0,0,7.28-.26c.87-.17,1.74-.24,2.27-1a8.93,8.93,0,0,0,1.07-2.91,12.76,12.76,0,0,1,1.4-3.78c2.26-3.64,4.54-7.3,6.94-10.86,1.19-1.78,2.94-3.29,3.68-5.34,1-2.71.62-5.55.73-8.37a6.2,6.2,0,0,0-1.26-2.35c-1.64-1.62-4.4-2.13-6.52-2.79a28.33,28.33,0,0,1-3.23-1.18C137.88,66.6,137.45,66.36,137.26,66.25Zm-79-46.58a27.22,27.22,0,0,0-7.46,3.61,21,21,0,0,0-3.9,4,29.45,29.45,0,0,0,7-1c2.11-.63,3.53-1.5,4.21-2.73A4.93,4.93,0,0,0,58.22,19.67Z" transform="translate(0.2 -9.83)" fill="#fe8340" stroke="#fe8340" stroke-miterlimit="10" stroke-width="0.25" fill-rule="evenodd"/></g></g><g id="Layer_4" data-name="Layer 4"><g id="Icons-3" data-name="Icons"><path d="M67.66,161.25a16.93,16.93,0,0,1-3.87,3.21,29,29,0,0,0-5.42,4.12A9.55,9.55,0,0,0,56,172.22a11.57,11.57,0,0,0-.49,5.44,17,17,0,0,0,2.16,5.2,6,6,0,0,0,3.11,2.59A3.52,3.52,0,0,0,64,185a3.88,3.88,0,0,0,1.66-4.26,17.61,17.61,0,0,1-.57-3.11c0-.46,0-1,.41-1.23a14.13,14.13,0,0,1,3.05-1.2q2.43-1,4.9-1.82a22,22,0,0,0,8.61-5,.23.23,0,0,1,0,.09,34.74,34.74,0,0,1,1.27,4.34c.47,2.06.93,4.11,1.42,6.16.1.41.29.91.43,1.43a2.68,2.68,0,0,1,.12.53c-.21.13-.64.4-.8.48-2,1-3.62,2.23-4.34,4.4a16.62,16.62,0,0,0-.5,2.09,1.31,1.31,0,0,0,1,1.36,7.21,7.21,0,0,0,1.74,0l1.54,0c.86,0,1.72,0,2.58-.08,1.15,0,2.39,0,3.52-.11a5.36,5.36,0,0,0,3.51-2.15,8.7,8.7,0,0,0,1.8-5.38c-.22-4.05-.23-8.15-.08-12.2a12.75,12.75,0,0,1,.23-2.19,2.19,2.19,0,0,1,.65-1.34,1.76,1.76,0,0,1,1-.27c.61-.06,1.25,0,1.79-.06,2.9-.16,5.8-.24,8.7-.33,4.11-.13,8.23-.25,12.34-.42a78.18,78.18,0,0,0,.23,9.19c.09,1.17.36,2.39.36,3.55a3,3,0,0,1-.84,2.33,7.65,7.65,0,0,1-5.51,1.88c-.73,0-1.48-.12-2.22-.15a5.92,5.92,0,0,0-2.86.47,4.2,4.2,0,0,0-2.25,2.7,13.44,13.44,0,0,0-.46,2.85,1.91,1.91,0,0,0,.75,1.55,3.13,3.13,0,0,0,1.18.58,1.52,1.52,0,0,0,.69,0,10.74,10.74,0,0,1,1.68-.29,58.84,58.84,0,0,1,6.22-.2,22,22,0,0,0,5.53-.71,18.31,18.31,0,0,0,4-1.51c3-1.62,5.56-4.48,5.8-8a20.18,20.18,0,0,0-.17-3.14,5.79,5.79,0,0,1,.16-2.4,44,44,0,0,1,2.29-5.16,18.36,18.36,0,0,0,1.68-5,21.23,21.23,0,0,1,4.36-.51c3,.06,5.56,1.62,8,3.43,2.75,2,5.38,4.38,8.17,5.83,1.57.81,3.39,1.47,5.1,2.27a10.68,10.68,0,0,1,3.94,2.81,12.59,12.59,0,0,1,2.32,4.55c.06.2.19.83.24,1-.25.43-.55.77-.8,1.13a4.69,4.69,0,0,0-.84,2.34,11.38,11.38,0,0,0,0,1.53,1.32,1.32,0,0,0,1,1c1.9.49,4.75,0,6.71-.1a16.32,16.32,0,0,0,2.26-.11,1.41,1.41,0,0,0,.84-.68,2.38,2.38,0,0,0,.25-1.12c0-.48-.1-1.12-.11-1.43a49.38,49.38,0,0,0-.31-5.57c-.43-3.44-1-8.45-3-11.39a9.53,9.53,0,0,0-3.25-2.89,27.43,27.43,0,0,1-3.07-1.91c-2.34-1.88-4.22-4.54-6.13-6.84a62,62,0,0,1-4.83-6.77,52.29,52.29,0,0,1,6.46,6.72c4.16,5.72,11,10.3,17,14a28.63,28.63,0,0,0,8.13,3.85,25.62,25.62,0,0,0,6.57.73c3.49-.08,7.12-.18,10.38-1.57a7.68,7.68,0,0,0,4.37-4.18c.49-1.46.5-3-1-3.9-1.34-.76-2.76-.32-4.12.12-1.83.59-3.63,1.36-5.48,1.86-3.55.95-7.38.23-10.75-1.11a51.37,51.37,0,0,1-7.59-4.26,36.91,36.91,0,0,1-8.18-6.39c-3.56-3.91-6.27-8.24-10-12-2.29-2.28-4.52-3.44-7.31-5.07a31.66,31.66,0,0,0-5.39-2.5,14.85,14.85,0,0,0-4.26-.84,35.72,35.72,0,0,0-15.32-5.65,85.22,85.22,0,0,0-10.11-.09c-6.33,0-12.59.32-18.9.85-7.68.63-15.48.51-23.13,1.53a82.61,82.61,0,0,0-10.81,2.62c-5.72,1.56-11,2.95-15.76,6.75-3.52,2.83-4.8,6.67-5.32,11-.09.75-.32,1.68-.36,2.56a4.49,4.49,0,0,0,.39,2.24,7.75,7.75,0,0,0,1.94,2.32c1,.88,2.25,1.64,3.13,2.35a1.35,1.35,0,0,0,1.75,0,18,18,0,0,1,5-3.47,25.94,25.94,0,0,1,3.5-.87,14.51,14.51,0,0,1,2-.49,1.78,1.78,0,0,1,1.26.15,4,4,0,0,1,1.2,1.63C66.85,159.61,67.21,160.51,67.66,161.25Zm65.7,2.56c-.69.12-1.39.22-2.08.28-2.87.22-5.74.39-8.61.53a76.71,76.71,0,0,0,.21,9.1c.1,1.24.37,2.53.38,3.75a5.67,5.67,0,0,1-1.65,4.26,10.3,10.3,0,0,1-7.4,2.65c-.77,0-1.56-.12-2.34-.16a3.44,3.44,0,0,0-1.61.23,1.64,1.64,0,0,0-.82,1.08,6.74,6.74,0,0,0-.25,1.34c.41-.07.83-.13,1.24-.17a61.38,61.38,0,0,1,6.5-.22,19,19,0,0,0,4.86-.63,15.3,15.3,0,0,0,3.4-1.27c2.22-1.2,4.21-3.22,4.39-5.83a17.36,17.36,0,0,0-.17-2.72,8.57,8.57,0,0,1,.27-3.46,47.69,47.69,0,0,1,2.42-5.48A17.73,17.73,0,0,0,133.36,163.81Zm18.42-18a21.94,21.94,0,0,0-6-7.34,33.11,33.11,0,0,0-15.48-6.14,82,82,0,0,0-9.79-.08c-6.26,0-12.46.32-18.7.84-7.63.63-15.39.51-23,1.52a78.94,78.94,0,0,0-10.46,2.55C63,138.64,58,139.87,53.58,143.42c-2.94,2.37-3.91,5.62-4.34,9.28-.07.6-.24,1.31-.31,2A2.21,2.21,0,0,0,49,156a6,6,0,0,0,1.76,1.86c.55.44,1.14.84,1.68,1.23a19.23,19.23,0,0,1,4.92-3.21,31.82,31.82,0,0,1,3.84-1,14.17,14.17,0,0,1,3-.61,4.18,4.18,0,0,1,2.51.64A6,6,0,0,1,68.55,157c.54,1,.92,2.07,1.46,2.93a3.6,3.6,0,0,0,.28.4l.11.12a10.89,10.89,0,0,0,2.94,2.1,15.26,15.26,0,0,0,4.74,1.77,20.13,20.13,0,0,0,2.34.16l.42,0a4.32,4.32,0,0,1,.28-1.48A5.18,5.18,0,0,1,82,161.5a8.35,8.35,0,0,1,3.1-2.13A7.12,7.12,0,0,0,83,162.74a3.32,3.32,0,0,0,.08,1.65,3.13,3.13,0,0,0,.57,1.14A2.12,2.12,0,0,1,84,166a8.81,8.81,0,0,1,.6,1.6A37.7,37.7,0,0,1,86,172.24c.46,2,.93,4.09,1.41,6.13.12.47.36,1.1.5,1.7a4.07,4.07,0,0,1,0,1.73,2.21,2.21,0,0,1-.71,1.1,8,8,0,0,1-1.45.92c-1.3.67-2.51,1.37-3,2.78l1.16,0c.85,0,1.7,0,2.54-.08,1.08,0,2.23,0,3.29-.09a2.72,2.72,0,0,0,1.72-1.14,5.83,5.83,0,0,0,1.24-3.58c-.23-4.12-.24-8.31-.09-12.44A13.16,13.16,0,0,1,93,166a4.46,4.46,0,0,1,1.47-2.27,4.11,4.11,0,0,1,1.95-.78c.77-.12,1.61-.07,2.32-.11,2.91-.17,5.84-.25,8.76-.34,4.59-.15,9.18-.28,13.76-.48h0c3.25-.14,6.5-.32,9.74-.58a30,30,0,0,0,3.45-.52,1.43,1.43,0,0,1,.42-.09h0a12.61,12.61,0,0,1-1.82-1.53,10.78,10.78,0,0,1-3.21-7,10.25,10.25,0,0,0,4.2,5.89,12,12,0,0,0,3.16,1.52,9.66,9.66,0,0,0,2.55.43h.79c3.54.07,6.63,1.8,9.55,4,2.64,1.94,5.14,4.22,7.82,5.61,1.55.8,3.33,1.44,5,2.23a13.27,13.27,0,0,1,4.89,3.56,15.36,15.36,0,0,1,2.82,5.53,9.58,9.58,0,0,1,.34,1.6,2.35,2.35,0,0,1-.21,1.19,10.46,10.46,0,0,1-.89,1.37,2.31,2.31,0,0,0-.54,1.12c1.58.1,3.52-.28,4.93-.33h.69c0-.24,0-.48,0-.6a49.18,49.18,0,0,0-.3-5.28c-.39-3.08-.78-7.59-2.54-10.23a7,7,0,0,0-2.39-2.07,29.71,29.71,0,0,1-3.37-2.12c-2.49-2-4.5-4.78-6.52-7.22a63.64,63.64,0,0,1-6.09-8.84c-.63-1.13-1.24-2.28-1.88-3.4A1.82,1.82,0,0,1,151.78,145.83Zm-82.3,17.43a20.56,20.56,0,0,1-4.2,3.44,26.82,26.82,0,0,0-5,3.72A7,7,0,0,0,58.61,173a8.81,8.81,0,0,0-.42,4.13A14.25,14.25,0,0,0,60,181.49a3.35,3.35,0,0,0,1.33,1.28,1.06,1.06,0,0,0,1.1,0c.82-.56.57-1.39.39-2.2a12.41,12.41,0,0,1-.49-3,4.06,4.06,0,0,1,1.58-3.36,17.62,17.62,0,0,1,3.59-1.48c1.66-.65,3.32-1.27,5-1.85a20.49,20.49,0,0,0,7-3.73,14.6,14.6,0,0,1-1.89-.16A17.84,17.84,0,0,1,72,164.9,19.35,19.35,0,0,1,69.48,163.26Zm80.92-24.15a33.06,33.06,0,0,1,3.54,5.12,17.85,17.85,0,0,1,3.43,2.28,58.26,58.26,0,0,1,8.41,8.48c4,5.44,10.47,9.76,16.21,13.26a25.82,25.82,0,0,0,7.37,3.53,22.41,22.41,0,0,0,5.87.66c3.16-.07,6.44-.1,9.38-1.36a4.84,4.84,0,0,0,2.88-2.56,3.56,3.56,0,0,0,.15-.56.81.81,0,0,0,0-.16,1.13,1.13,0,0,0-.81,0c-.38.09-.75.23-1.13.35-1.87.6-3.71,1.39-5.6,1.9-4.11,1.1-8.55.34-12.45-1.21a53.7,53.7,0,0,1-8-4.46,40.06,40.06,0,0,1-8.79-6.88c-3.52-3.88-6.2-8.18-9.91-11.88-2.11-2.1-4.19-3.14-6.76-4.64A31.6,31.6,0,0,0,150.4,139.11Z" transform="translate(0.2 -9.83)" fill="#fe8340" stroke="#fe8340" stroke-miterlimit="10" stroke-width="0.25" fill-rule="evenodd"/></g></g><g id="Layer_3" data-name="Layer 3"><g id="Icons-4" data-name="Icons"><path d="M192.48,90.26h0a2.42,2.42,0,0,1-1,.39l-.24,0a18.81,18.81,0,0,0-.86-3.52,3.87,3.87,0,0,0-.65-1.28,2,2,0,0,0-.36-.33,1,1,0,0,0-.51-.16.87.87,0,0,0-.56.2,2.92,2.92,0,0,0-.36.44,9.34,9.34,0,0,0-.65,1.16,9.53,9.53,0,0,0-.64,2.19c-.2.93-.46,2-.6,3a9.35,9.35,0,0,0-4.35,4.28c-.76,1.66-.48,3.64-.49,5.4a38.4,38.4,0,0,1-.53,4.14.8.8,0,0,0,.13.52,5.57,5.57,0,0,0,.9,1,.31.31,0,0,0,.11.09,9,9,0,0,0,1,.76l-.41,0a13.16,13.16,0,0,0-3.71-.26,1.66,1.66,0,0,0-1.49,1.46,5.71,5.71,0,0,0,.45,2.15,7.52,7.52,0,0,0,.73,1.51,6.44,6.44,0,0,0,2,1.88,18.15,18.15,0,0,1,1.91,1.36c2.45,2.19,3.93,4.72,6.92,6.36a8.32,8.32,0,0,0,2.23.72,5.55,5.55,0,0,1,1.67.54,5,5,0,0,1,.2.77c.13.88.11,2,.14,2.36.19,3.16.45,6.66,2,9.48a12.69,12.69,0,0,0,3.62,4.09c-.77-.13-1.55-.27-2.34-.35-3.45-.36-7.35,1.11-8.75,4.59a.81.81,0,0,0,.63,1.11c.64.15,4.14.21,5.18.35h0A34.36,34.36,0,0,0,210,145.15a19.2,19.2,0,0,0,3.05-1.32A45.23,45.23,0,0,0,224.08,147c5.29.88,9.92,1.73,14.73,1.24a11.45,11.45,0,0,0,7.65-3.67c.89-1.06,2.25-5.1,2.67-6.39.81-2.48,1.51-5,2.39-7.48.52-1.47,1.15-3.34,2.54-4.2,1.24-.79,2.54-.3,3.69.5a16.47,16.47,0,0,1,2.92,2.8,19.42,19.42,0,0,0,3.18,3.1,8.09,8.09,0,0,0,3.47,1.61,2.92,2.92,0,0,0,2.69-1,6.8,6.8,0,0,0,1.31-2.54,36.47,36.47,0,0,0,.77-3.92,20.39,20.39,0,0,0,.31-6.28c-1-7.13-6.83-12-13.13-14.65-8.12-3.47-19.16-1.63-24.45,5.76-2.41,3.37-3.4,7.74-4.81,11.59-1.53,4.17-3.12,8.44-6.68,11.31-1.28,1-2.61,1.82-4.17,1.59.35-1,.63-2,.88-2.95,1.45-5.61,2.2-11.56,1-17.28-.75-3.69-2.55-7.38-5.89-9.37a38.17,38.17,0,0,0-5.9-2.51,15.25,15.25,0,0,1-5.18-2.88A9,9,0,0,1,201.55,96a31.62,31.62,0,0,0-1.37-6.63,15.16,15.16,0,0,0-2.27-3.53,3,3,0,0,0-1.55-1,1,1,0,0,0-.86.41,12.84,12.84,0,0,0-.75,1.34c-.37.69-.67,1.45-1,2.16A4.51,4.51,0,0,1,192.48,90.26Zm22.13,52.57a46.69,46.69,0,0,0,9.73,2.65c5.14.86,9.63,1.71,14.31,1.23a9.87,9.87,0,0,0,6.62-3.13c.81-1,2-4.68,2.38-5.86.81-2.5,1.51-5.05,2.39-7.53.63-1.76,1.51-4,3.18-5,1.82-1.14,3.74-.61,5.42.54a18.23,18.23,0,0,1,3.21,3.06,18.37,18.37,0,0,0,2.91,2.87,7.74,7.74,0,0,0,2.31,1.23,1.62,1.62,0,0,0,1.77-.37A6,6,0,0,0,270,130c.26-1.08.4-2.21.56-3.14a18.72,18.72,0,0,0,.31-5.78c-.93-6.57-6.4-11-12.2-13.44-7.49-3.19-17.69-1.58-22.57,5.24-2.33,3.26-3.25,7.5-4.62,11.22-1.62,4.43-3.37,8.93-7.16,12-1.74,1.41-3.59,2.33-5.74,1.86a11.39,11.39,0,0,1-2,3.22A12.69,12.69,0,0,1,214.61,142.83Zm2.83-6.25a29.08,29.08,0,0,0,1.09-3.52c1.39-5.37,2.13-11.08,1-16.57-.67-3.27-2.2-6.57-5.16-8.33a35,35,0,0,0-5.65-2.4,16.87,16.87,0,0,1-5.7-3.19,10.55,10.55,0,0,1-3-6.35,30,30,0,0,0-1.28-6.32,13.5,13.5,0,0,0-2-3.06,2.09,2.09,0,0,0-.25-.26l-.37.67c-.79,1.48-1.31,3.2-2.7,4.25a1.61,1.61,0,0,0-.4,1.26,6,6,0,0,0,.37,1.87,10.66,10.66,0,0,0,2,3.52,10.64,10.64,0,0,1-3.27-3.93,5,5,0,0,1-.49-2l-.89.17-.11,0h0l-.24.05a14.64,14.64,0,0,0-3.52,1.26,7.87,7.87,0,0,0-3.79,3.61c-.67,1.47-.34,3.21-.35,4.76a31.68,31.68,0,0,1-.5,4h0a3.22,3.22,0,0,0,.39.43l.45.12c.35.1.69.2,1,.28a5.68,5.68,0,0,0,1.17.15,3.34,3.34,0,0,0,.77-.06,6.9,6.9,0,0,0,.78-.21,6.86,6.86,0,0,1-.67.5,5.12,5.12,0,0,1-.78.38c-.21.07-.41.13-.62.18a7.29,7.29,0,0,1,.74.37,1,1,0,0,1,.43.58.76.76,0,0,1-.25.76,4.55,4.55,0,0,1-.9.42,7.85,7.85,0,0,1-2.51.14,16.14,16.14,0,0,0-2.84-.33,1.87,1.87,0,0,0-.56.1s-.09,0-.1,0a4.15,4.15,0,0,0,.38,1.49,6,6,0,0,0,.58,1.19A4.9,4.9,0,0,0,181.3,114a21.85,21.85,0,0,1,2.07,1.48c2.36,2.12,3.76,4.58,6.63,6.16a6.9,6.9,0,0,0,1.82.57A7,7,0,0,1,194,123a2.14,2.14,0,0,1,.77,1.35,20.85,20.85,0,0,1,.24,3c.17,2.93.36,6.2,1.81,8.82a11.17,11.17,0,0,0,3.53,3.83,8.2,8.2,0,0,0,.82.46,29.39,29.39,0,0,1-1.34-5.77c-.57-4.8.37-8.75,2.23-11.44,2.56-3.7,6.89-5,11.61-2.88-4.64-1.83-8.74-.41-11,3.27-1.62,2.63-2.27,6.38-1.54,10.87a30.41,30.41,0,0,0,2.12,7.09.76.76,0,0,1,.09.55.82.82,0,0,1-.56.62,10.38,10.38,0,0,1-1.7.07c-1.52-.1-3-.48-4.49-.63-2.46-.25-5.25.56-6.65,2.67,1.07.06,2.8.15,3.71.24l.1-.08a4.3,4.3,0,0,1,1.26-.69,4.18,4.18,0,0,1,1.92-.22,4.1,4.1,0,0,0-1.46,1l-.2.22a32.56,32.56,0,0,0,14.16-1.61,13.69,13.69,0,0,0,5.92-3.61,11.18,11.18,0,0,0,2-3.32.43.43,0,0,0,0-.05ZM189.71,91a17.1,17.1,0,0,0-.79-3.29l0-.14c-.05.1-.11.21-.16.32a8.35,8.35,0,0,0-.53,1.85c-.12.59-.28,1.23-.4,1.87A18,18,0,0,1,189.71,91Z" transform="translate(0.2 -9.83)" fill="#fe8340" stroke="#fe8340" stroke-miterlimit="10" stroke-width="0.25" fill-rule="evenodd"/></g></g><g id="Low_Grass" data-name="Low Grass"><use width="112.42" height="76.66" transform="translate(83.42 184.52) scale(0.39 0.24)" xlink:href="#Grass-edit"/><use width="112.42" height="76.66" transform="translate(4.79 185.35) scale(0.39 0.24)" xlink:href="#Grass-edit"/><use width="112.42" height="76.66" transform="translate(252.01 211.74) scale(0.39 0.24)" xlink:href="#Grass-edit"/><use width="112.42" height="76.66" transform="translate(82.4 225.11) scale(0.39 0.24)" xlink:href="#Grass-edit"/><use width="112.42" height="76.66" transform="translate(196.4 182.04) scale(0.39 0.24)" xlink:href="#Grass-edit"/><use width="112.42" height="76.66" transform="translate(137.75 197.71) scale(0.39 0.24)" xlink:href="#Grass-edit"/><use width="112.42" height="76.66" transform="translate(8.44 215.32) scale(0.39 0.24)" xlink:href="#Grass-edit"/><use width="112.42" height="76.66" transform="translate(341.49 187.41) scale(0.39 0.24)" xlink:href="#Grass-edit"/><use width="112.42" height="76.66" transform="translate(325.3 221.39) scale(0.39 0.24)" xlink:href="#Grass-edit"/><use width="112.42" height="76.66" transform="translate(153.08 223.34) scale(0.39 0.24)" xlink:href="#Grass-edit"/><use width="112.42" height="76.66" transform="translate(273.46 183.69) scale(0.39 0.24)" xlink:href="#Grass-edit"/></g><g id="Lines"><line x1="0.2" y1="181.04" x2="400.52" y2="181.04" fill="none" stroke="#fe8340" stroke-miterlimit="10" stroke-width="2"/><line x1="308.16" y1="213.18" x2="399.97" y2="213.18" fill="none" stroke="#fe8340" stroke-miterlimit="10" stroke-width="2"/><line x1="202.85" y1="205.28" x2="269.87" y2="205.28" fill="none" stroke="#fe8340" stroke-miterlimit="10" stroke-width="2"/><line x1="135.71" y1="193.28" x2="185.53" y2="193.28" fill="none" stroke="#fe8340" stroke-miterlimit="10" stroke-width="2"/><line x1="75.99" y1="219.66" x2="235.4" y2="219.66" fill="none" stroke="#fe8340" stroke-miterlimit="10" stroke-width="2"/><line y1="209.03" x2="84.41" y2="209.03" fill="none" stroke="#fe8340" stroke-miterlimit="10" stroke-width="2"/><line x1="10.11" y1="241.79" x2="390.52" y2="241.79" fill="none" stroke="#fe8340" stroke-miterlimit="10" stroke-width="2"/></g><g id="Tall_Grass" data-name="Tall Grass"><use width="42.61" height="74.17" transform="translate(5.97 115) scale(0.89)" xlink:href="#Grass-tall-edit"/><use width="42.61" height="74.17" transform="translate(362.32 124.12) scale(0.77)" xlink:href="#Grass-tall-edit"/></g></svg>