<?xml version="1.0" encoding="UTF-8"?>
<svg version="1.1" xmlns="http://www.w3.org/2000/svg" width="1024" height="1024">
<path d="M0 0 C337.92 0 675.84 0 1024 0 C1024 337.92 1024 675.84 1024 1024 C686.08 1024 348.16 1024 0 1024 C0 686.08 0 348.16 0 0 Z " fill="#FDFDFD" transform="translate(0,0)"/>
<path d="M0 0 C3.54185265 1.18061755 3.85657068 1.90980413 5.7578125 4.99609375 C6.29237061 5.85178955 6.82692871 6.70748535 7.37768555 7.58911133 C8.2426062 8.99906372 8.2426062 8.99906372 9.125 10.4375 C10.38246898 12.4515492 11.64165802 14.46452525 12.90234375 16.4765625 C13.89983643 18.07226074 13.89983643 18.07226074 14.91748047 19.70019531 C18.44000814 25.28172919 22.06475756 30.79569286 25.6875 36.3125 C27.13586597 38.5218412 28.58349819 40.73166247 30.03125 42.94140625 C31.05412109 44.50205811 31.05412109 44.50205811 32.09765625 46.09423828 C35.49115884 51.27769155 38.86857712 56.47092485 42.2109375 61.6875 C44.38266852 65.07041981 46.61234291 68.41140783 48.8515625 71.75 C50.17217656 73.74980089 51.49249171 75.74979921 52.8125 77.75 C53.45469482 78.69198242 54.09688965 79.63396484 54.75854492 80.60449219 C55.33967041 81.49297852 55.9207959 82.38146484 56.51953125 83.296875 C57.04651611 84.08416992 57.57350098 84.87146484 58.11645508 85.68261719 C59 88 59 88 58.48168945 90.28491211 C56.43361378 94.03786145 54.14280579 97.58752503 51.7734375 101.14453125 C51.26575836 101.91431808 50.75807922 102.68410492 50.23501587 103.47721863 C48.61921927 105.92512452 46.9972133 108.36884289 45.375 110.8125 C44.27562891 112.47563869 43.1766659 114.13904721 42.078125 115.80273438 C39.39013469 119.87163099 36.69656951 123.9367845 34 128 C31.01536832 126.5726582 29.03171792 125.24039456 26.78515625 122.796875 C26.18711182 122.15250488 25.58906738 121.50813477 24.97290039 120.84423828 C24.34246826 120.15313965 23.71203613 119.46204102 23.0625 118.75 C21.72919181 117.30466431 20.39585795 115.85935229 19.0625 114.4140625 C18.38960937 113.6809082 17.71671875 112.94775391 17.0234375 112.19238281 C15.07293746 110.07902731 13.10358906 107.98548406 11.125 105.8984375 C10.52421631 105.26196289 9.92343262 104.62548828 9.30444336 103.96972656 C8.1599879 102.75774262 7.01245059 101.54866002 5.86157227 100.34277344 C2 96.22555276 2 96.22555276 2 94 C0.89388002 95.10611998 -0.2118519 96.2126291 -1.31640625 97.3203125 C-2.56917776 98.57017734 -3.82795574 99.81402751 -5.08984375 101.0546875 C-9.23930371 105.1544958 -13.22934898 109.31177671 -17.02734375 113.73828125 C-19.61467985 116.70475174 -22.27376342 119.60217747 -24.9375 122.5 C-25.68362549 123.31174683 -25.68362549 123.31174683 -26.44482422 124.13989258 C-27.6291696 125.42725155 -28.81448056 126.71372212 -30 128 C-33.32260707 126.61863683 -34.78113457 125.27886755 -36.62890625 122.2109375 C-37.10175049 121.44152832 -37.57459473 120.67211914 -38.06176758 119.87939453 C-38.55700928 119.05294434 -39.05225098 118.22649414 -39.5625 117.375 C-42.67558064 112.27733652 -45.78527559 107.21675047 -49.265625 102.359375 C-49.77794678 101.64346191 -50.29026855 100.92754883 -50.81811523 100.18994141 C-51.79525142 98.83973428 -52.78395298 97.49780265 -53.78540039 96.16552734 C-56.99013816 91.71224401 -56.99013816 91.71224401 -57.03515625 88.4609375 C-55.69063684 85.26453286 -54.0058713 82.39945312 -52.125 79.5 C-51.69719238 78.82767334 -51.26938477 78.15534668 -50.82861328 77.46264648 C-45.42894589 69.02211377 -39.90019305 60.66271159 -34.39526367 52.29052734 C-29.01628227 44.10590265 -23.70122582 35.88427009 -18.4375 27.625 C-14.03159979 20.71449865 -9.60848858 13.81940124 -5.0625 7 C-4.65507568 6.38850098 -4.24765137 5.77700195 -3.82788086 5.14697266 C-1.13679092 1.13679092 -1.13679092 1.13679092 0 0 Z " fill="#63B8BE" transform="translate(511,317)"/>
<path d="M0 0 C3.57075514 1.19025171 3.90326191 1.9832843 5.828125 5.1015625 C6.37267334 5.97224365 6.91722168 6.8429248 7.47827148 7.73999023 C8.3552771 9.16807007 8.3552771 9.16807007 9.25 10.625 C10.51568052 12.65051905 11.78264823 14.67523425 13.05078125 16.69921875 C13.70385254 17.74513184 14.35692383 18.79104492 15.02978516 19.86865234 C18.10879022 24.76224824 21.26982305 29.60100219 24.4375 34.4375 C25.36997559 35.86376709 25.36997559 35.86376709 26.32128906 37.31884766 C27.58340943 39.24913025 28.84594188 41.17914346 30.10888672 43.10888672 C32.61785627 46.94457191 35.12144473 50.78375221 37.62451172 54.62329102 C38.88223095 56.55243781 40.14037392 58.48130841 41.39892578 60.40991211 C44.39315113 64.99851036 47.38374265 69.58934955 50.36328125 74.1875 C51.51261271 75.95859825 52.66236042 77.72942643 53.8125 79.5 C54.39201416 80.39227295 54.97152832 81.2845459 55.56860352 82.20385742 C59.90505506 88.85315772 64.30607443 95.45714687 68.7265625 102.05078125 C69.3178746 102.93373871 69.90918671 103.81669617 70.51841736 104.72640991 C73.51217877 109.19648745 76.5106006 113.66330818 79.5168457 118.125 C80.62470879 119.77721162 81.73238335 121.42954968 82.83984375 123.08203125 C83.36095734 123.85178787 83.88207092 124.62154449 84.41897583 125.41462708 C84.89164886 126.12189438 85.3643219 126.82916168 85.85131836 127.55786133 C86.47628456 128.48638664 86.47628456 128.48638664 87.11387634 129.43367004 C88 131 88 131 88 133 C45.72571165 137.86870975 45.72571165 137.86870975 36.07128906 130.47607422 C29.66433342 124.28810191 26.05549818 115.76706983 22.63671875 107.68359375 C20.47035588 102.63090136 17.44349305 98.24779376 14.3125 93.75 C13.28269219 92.17863559 12.25929666 90.60305112 11.2421875 89.0234375 C10.72495117 88.22389648 10.20771484 87.42435547 9.67480469 86.60058594 C5.72857531 80.47300062 1.81704553 74.3230728 -2.10107422 68.17749023 C-6.72939826 60.93567662 -11.44076641 53.75621693 -16.28344727 46.65576172 C-17.54861476 44.78626399 -18.7758011 42.89643768 -20 41 C-21.02867187 39.49759766 -21.02867187 39.49759766 -22.078125 37.96484375 C-23 35 -23 35 -21.52734375 31.546875 C-20.68860948 30.26485082 -19.82326892 28.99998983 -18.9375 27.75 C-18.25796265 26.73184204 -18.25796265 26.73184204 -17.56469727 25.69311523 C-16.58448057 24.22918978 -15.59370774 22.77229002 -14.59375 21.32177734 C-12.92859931 18.89598337 -11.30444626 16.4464381 -9.6875 13.98828125 C-7.59256606 10.80924472 -5.49177445 7.63458942 -3.37109375 4.47265625 C-2.7203186 3.50211304 -2.7203186 3.50211304 -2.05639648 2.51196289 C-1 1 -1 1 0 0 Z " fill="#93C36A" transform="translate(604,370)"/>
<path d="M0 0 C4.22820849 1.40940283 5.39365109 4.46676188 7.5625 8.125 C8.44713027 9.58199926 9.33390775 11.03769664 10.22265625 12.4921875 C10.67785645 13.23823242 11.13305664 13.98427734 11.60205078 14.75292969 C14.21410354 18.95155588 16.99501481 23.03731173 19.77563477 27.12548828 C21.72215836 30.00524387 23.55724427 32.83221024 25 36 C24.39478516 36.89912109 24.39478516 36.89912109 23.77734375 37.81640625 C14.05166816 52.33264816 4.5219926 66.97942651 -4.8125 81.75 C-10.91492307 91.40277972 -17.2257314 100.90730561 -23.60864258 110.37597656 C-24.3230249 111.43913086 -25.03740723 112.50228516 -25.7734375 113.59765625 C-26.49950195 114.63913818 -27.22556641 115.68062012 -27.97363281 116.75366211 C-30.11325455 119.96538734 -30.11325455 119.96538734 -31.45605469 123.67016602 C-33.23445991 127.78181875 -34.5328102 130.12696888 -38 133 C-45.88773608 135.17182759 -54.42762997 134.21321059 -62.5 133.8125 C-64.77587737 133.74724825 -67.05193342 133.68794003 -69.328125 133.63476562 C-74.88933009 133.49191937 -80.44383768 133.27484537 -86 133 C-84.42564447 128.88608224 -82.42618138 125.42788269 -79.9375 121.8125 C-79.02340725 120.46314119 -78.11075708 119.11280448 -77.19921875 117.76171875 C-76.43617432 116.6312915 -76.43617432 116.6312915 -75.65771484 115.47802734 C-72.47690454 110.72320782 -69.37076148 105.91934559 -66.25 101.125 C-61.32738697 93.57218372 -56.37366486 86.04181439 -51.36328125 78.546875 C-50.88210846 77.82688324 -50.40093567 77.10689148 -49.90518188 76.36508179 C-47.55348613 72.847795 -45.19844807 69.33280225 -42.83886719 65.82080078 C-37.90557089 58.46195113 -33.08973937 51.04632804 -28.43544006 43.5072937 C-25.7949664 39.23467876 -23.06059485 35.03758725 -20.25 30.875 C-15.21206861 23.38798537 -10.37569656 15.77803492 -5.55761719 8.14794922 C-4.98043945 7.2354541 -4.40326172 6.32295898 -3.80859375 5.3828125 C-3.29095459 4.56184082 -2.77331543 3.74086914 -2.23999023 2.89501953 C-1 1 -1 1 0 0 Z " fill="#23598F" transform="translate(418,370)"/>
<path d="M0 0 C3.29143165 1.09714388 3.6439016 1.5234355 5.48364258 4.26293945 C5.95034866 4.95067947 6.41705475 5.63841949 6.89790344 6.34700012 C7.39179062 7.09487289 7.8856778 7.84274567 8.39453125 8.61328125 C8.90553879 9.37924118 9.41654633 10.14520111 9.94303894 10.93437195 C11.02062251 12.55649785 12.09377989 14.18157145 13.1628418 15.80932617 C14.80663526 18.30360091 16.47559803 20.77967916 18.14648438 23.25585938 C19.18908793 24.83228427 20.23015652 26.40972565 21.26953125 27.98828125 C21.77353958 28.73008133 22.27754791 29.47188141 22.79682922 30.23616028 C23.24777451 30.93335678 23.69871979 31.63055328 24.16333008 32.34887695 C24.56731522 32.95874954 24.97130035 33.56862213 25.38752747 34.19697571 C25.5896434 34.79197372 25.79175934 35.38697174 26 36 C24 40 24 40 17 48 C25.91 48 34.82 48 44 48 C44 60.87 44 73.74 44 87 C11 87 -22 87 -56 87 C-53.45281752 81.90563505 -51.22247537 77.59334292 -48.09375 72.98046875 C-46.98761353 71.33872681 -46.98761353 71.33872681 -45.85913086 69.66381836 C-45.47433563 69.09694305 -45.08954041 68.53006775 -44.69308472 67.9460144 C-42.65021524 64.93498312 -40.62390077 61.91285923 -38.59765625 58.890625 C-38.19607803 58.29209213 -37.79449982 57.69355927 -37.38075256 57.07688904 C-34.14867243 52.24835103 -31.01383109 47.36629249 -27.9375 42.4375 C-23.06992043 34.64850734 -18.08628923 26.93874413 -13.0625 19.25 C-12.69687958 18.68924774 -12.33125916 18.12849548 -11.95455933 17.55075073 C-8.08220296 11.61412812 -4.17951218 5.72535914 0 0 Z " fill="#4692C1" transform="translate(447,416)"/>
<path d="M0 0 C3.79272335 3.53457987 6.54207819 7.15997588 9.1875 11.625 C13.91208604 19.39481685 18.93238648 26.95224229 24 34.5 C29.2123787 42.27324993 34.38431178 50.05689033 39.28271484 58.03344727 C43.7619929 65.30330197 48.47736316 72.42083043 53.17651367 79.54980469 C53.80146729 80.50145508 54.4264209 81.45310547 55.0703125 82.43359375 C55.63508301 83.29009521 56.19985352 84.14659668 56.78173828 85.02905273 C58 87 58 87 58 88 C25 88 -8 88 -42 88 C-42 75.13 -42 62.26 -42 49 C-33.09 49 -24.18 49 -15 49 C-19.39102077 43.89804415 -19.39102077 43.89804415 -24 39 C-23.78046665 34.28213387 -21.21716013 30.86555884 -18.6328125 27.08984375 C-18.19742157 26.44052383 -17.76203064 25.79120392 -17.31344604 25.12220764 C-15.9248064 23.05546342 -14.52499842 20.996562 -13.125 18.9375 C-12.19068863 17.54931085 -11.25708719 16.1606436 -10.32421875 14.77148438 C-3.08122367 4.01279977 -3.08122367 4.01279977 0 0 Z " fill="#479265" transform="translate(575,415)"/>
<path d="M0 0 C10 0 10 0 13.25 2.82421875 C14.19895268 4.08837597 15.11456373 5.37806987 16 6.6875 C16.49854492 7.36651367 16.99708984 8.04552734 17.51074219 8.74511719 C18.53454492 10.14121183 19.54602356 11.54642856 20.54492188 12.96044922 C22.6874228 15.96354532 24.97293025 18.84861573 27.25 21.75 C31.620173 27.42192665 35.78268968 33.20119832 40 39 C40.33 26.13 40.66 13.26 41 0 C44.63 0 48.26 0 52 0 C52 19.47 52 38.94 52 59 C42 59 42 59 38.453125 55.6953125 C37.35322787 54.19494947 36.28695615 52.66953386 35.25 51.125 C34.06349926 49.47974765 32.87596705 47.83523877 31.6875 46.19140625 C31.08679688 45.33820801 30.48609375 44.48500977 29.8671875 43.60595703 C26.79615611 39.31984445 23.51520896 35.20131792 20.25 31.0625 C19.08660594 29.57573142 17.92500156 28.08755978 16.765625 26.59765625 C16.27868164 25.97383057 15.79173828 25.35000488 15.29003906 24.70727539 C14.13594686 23.17991604 13.06189314 21.59283971 12 20 C11.67 32.87 11.34 45.74 11 59 C7.37 59 3.74 59 0 59 C0 39.53 0 20.06 0 0 Z " fill="#1D243E" transform="translate(714,569)"/>
<path d="M0 0 C3.63 0 7.26 0 11 0 C13.43544108 5.54600046 15.8707366 11.0920648 18.3059082 16.63818359 C19.13106536 18.51743212 19.95625949 20.39666441 20.78149414 22.27587891 C21.17908936 23.18128418 21.57668457 24.08668945 21.98632812 25.01953125 C22.38250336 25.9216333 22.77867859 26.82373535 23.18685913 27.75317383 C23.98003048 29.56007992 24.77269607 31.36720812 25.56484985 33.17456055 C27.41783823 37.40184284 29.27611557 41.62650793 31.15185547 45.84375 C31.64515602 46.95756042 31.64515602 46.95756042 32.14842224 48.09387207 C32.75974962 49.47369613 33.37389822 50.85227497 33.99134827 52.22937012 C36 56.77490532 36 56.77490532 36 59 C32.04 59 28.08 59 24 59 C20 48.25 20 48.25 20 46 C10.43 46.33 0.86 46.66 -9 47 C-10.65 50.96 -12.3 54.92 -14 59 C-17.63 59 -21.26 59 -25 59 C-22.78116012 51.9347467 -20.02554851 45.25497397 -17 38.5 C-16.02461567 36.30344044 -15.0493593 34.10682405 -14.07421875 31.91015625 C-13.57196777 30.7823877 -13.0697168 29.65461914 -12.55224609 28.49267578 C-9.95496684 22.64859321 -7.38504895 16.79249971 -4.8125 10.9375 C-3.8816357 8.82155946 -2.95065789 6.70566886 -2.01953125 4.58984375 C-1.35308594 3.07519531 -0.68664062 1.56054688 0 0 Z " fill="#1B233C" transform="translate(456,569)"/>
<path d="M0 0 C3.63 0 7.26 0 11 0 C11 8.25 11 16.5 11 25 C19.91 25 28.82 25 38 25 C38 16.75 38 8.5 38 0 C41.63 0 45.26 0 49 0 C49 19.47 49 38.94 49 59 C45.37 59 41.74 59 38 59 C38 51.08 38 43.16 38 35 C29.09 35 20.18 35 11 35 C11 42.92 11 50.84 11 59 C7.37 59 3.74 59 0 59 C0 39.53 0 20.06 0 0 Z " fill="#212941" transform="translate(260,569)"/>
<path d="M0 0 C14.52 0 29.04 0 44 0 C44 2.97 44 5.94 44 9 C32.78 9 21.56 9 10 9 C10 13.95 10 18.9 10 24 C20.23 24 30.46 24 41 24 C41 27.3 41 30.6 41 34 C31.1 34 21.2 34 11 34 C11 38.62 11 43.24 11 48 C22.22 48 33.44 48 45 48 C45 51.3 45 54.6 45 58 C30.15 58 15.3 58 0 58 C0 38.86 0 19.72 0 0 Z " fill="#1A223B" transform="translate(336,570)"/>
<path d="M0 0 C14.52 0 29.04 0 44 0 C44 2.97 44 5.94 44 9 C32.78 9 21.56 9 10 9 C10 13.95 10 18.9 10 24 C19.9 24 29.8 24 40 24 C40 26.97 40 29.94 40 33 C30.1 33 20.2 33 10 33 C10 37.95 10 42.9 10 48 C21.22 48 32.44 48 44 48 C44 51.3 44 54.6 44 58 C29.48 58 14.96 58 0 58 C0 38.86 0 19.72 0 0 Z " fill="#151D36" transform="translate(647,570)"/>
<path d="M0 0 C0.70535889 0.00016113 1.41071777 0.00032227 2.13745117 0.00048828 C9.49012004 0.16016448 15.21299646 2.30866431 21.3125 6.375 C20.18798273 9.3469385 19.08956209 11.70940687 17.3125 14.375 C14.04314562 13.84768478 11.09611419 12.94809898 8 11.8125 C3.51032149 10.2934921 0.04119715 9.89411554 -4.6875 10.375 C-7.1470774 11.71330958 -7.1470774 11.71330958 -8.6875 13.375 C-8.66623538 16.78114946 -8.66623538 16.78114946 -7.6875 20.375 C-4.02947599 22.96238283 -0.21516937 23.77144444 4.1015625 24.796875 C10.72045818 26.52761097 17.03999111 28.56378802 21.3125 34.18359375 C23.40166563 38.76180436 23.10616727 43.49767721 22.3125 48.375 C19.63433311 53.9297165 15.90397206 57.33841118 10.1875 59.625 C-0.72766653 61.73761288 -9.48915762 60.29878912 -18.75 54.1875 C-20.06977688 53.26027214 -21.38506058 52.32642738 -22.6875 51.375 C-21.0375 48.735 -19.3875 46.095 -17.6875 43.375 C-14.98750274 44.37785612 -12.58971511 45.43462493 -10.125 46.9375 C-6.34425358 49.16717097 -3.04069687 49.52932015 1.3125 49.5625 C2.158125 49.57667969 3.00375 49.59085938 3.875 49.60546875 C6.52476755 49.35492983 8.10644919 48.85557101 10.3125 47.375 C11.39473366 44.46495097 11.39473366 44.46495097 11.3125 41.375 C9.3014512 38.79049268 7.38695747 37.83895806 4.29296875 36.91015625 C3.51759766 36.66716797 2.74222656 36.42417969 1.94335938 36.17382812 C0.32627536 35.68650544 -1.29091069 35.19952119 -2.90820312 34.71289062 C-8.99361857 32.8052211 -14.50870045 30.43354683 -18.6875 25.375 C-20.34538184 20.40135448 -20.49188099 15.54788913 -19.6875 10.375 C-15.16894868 2.24160763 -8.98485072 -0.01911896 0 0 Z " fill="#191F38" transform="translate(529.6875,568.625)"/>
<path d="M0 0 C1.25586914 0.00422974 1.25586914 0.00422974 2.53710938 0.00854492 C9.999984 0.20352484 15.93313861 1.9216243 21.4375 7.16796875 C21.85 7.60753906 22.2625 8.04710937 22.6875 8.5 C21.31595496 11.45409701 19.69886276 13.94008376 17.6875 16.5 C17.12546875 16.21382812 16.5634375 15.92765625 15.984375 15.6328125 C9.21385167 12.29360882 3.33030192 9.51383201 -4.3125 10.5 C-10.47802127 12.61163458 -13.95293927 15.69038195 -17.38671875 21.234375 C-19.67588647 26.83655761 -19.3795532 34.38458575 -17.4375 40.0546875 C-14.84539243 44.5738224 -11.39781684 48.00595618 -6.3125 49.5 C1.39017775 50.64234628 6.88391022 49.58757519 13.43359375 45.3984375 C15.6875 44.5 15.6875 44.5 18.34765625 45.2265625 C20.6875 46.5 20.6875 46.5 22.6875 48.5 C22.59144769 51.38156936 21.75619038 52.4290938 19.75 54.5 C10.67367694 60.42739465 1.88910407 61.92858422 -8.82421875 60.0625 C-17.18348622 57.72832409 -23.51954262 52.57835311 -27.875 45.125 C-31.65309189 36.72454988 -31.89009914 27.32209205 -29.4921875 18.47265625 C-26.00805025 10.56634479 -19.29469384 4.29842583 -11.2890625 1.07788086 C-7.56270195 -0.01158251 -3.85892751 -0.02887266 0 0 Z " fill="#1B223A" transform="translate(602.3125,568.5)"/>
<path d="M0 0 C16.17 0 32.34 0 49 0 C49 3.63 49 7.26 49 11 C42.73 11 36.46 11 30 11 C30 26.84 30 42.68 30 59 C26.37 59 22.74 59 19 59 C19 43.16 19 27.32 19 11 C12.73 11 6.46 11 0 11 C0 7.37 0 3.74 0 0 Z " fill="#242A43" transform="translate(189,569)"/>
<path d="M0 0 C3.67125 -0.061875 7.3425 -0.12375 11.125 -0.1875 C12.84420654 -0.22846802 12.84420654 -0.22846802 14.59814453 -0.27026367 C20.13625217 -0.3154192 24.2694756 -0.23829394 29 3 C33.09343776 7.42533811 34.36336397 10.85964255 34.28515625 16.9375 C33.69446317 21.20991019 31.09263335 24.00980103 28 26.8125 C23.64774157 29.39665344 19.18661036 29.12315778 14.25 29.0625 C13.55261719 29.05798828 12.85523438 29.05347656 12.13671875 29.04882812 C10.42444197 29.0371002 8.71220967 29.01916653 7 29 C7 33.29 7 37.58 7 42 C4.69 42 2.38 42 0 42 C0 28.14 0 14.28 0 0 Z " fill="#479061" transform="translate(429,666)"/>
<path d="M0 0 C15.51 0 31.02 0 47 0 C47 2.97 47 5.94 47 9 C40.73 9 34.46 9 28 9 C28 25.17 28 41.34 28 58 C24.7 58 21.4 58 18 58 C18 41.83 18 25.66 18 9 C12.06 9 6.12 9 0 9 C0 6.03 0 3.06 0 0 Z " fill="#161E38" transform="translate(788,570)"/>
<path d="M0 0 C2.31 0 4.62 0 7 0 C11.18574103 8.11797151 15.00342582 16.35620219 18.57958984 24.75830078 C19.39003006 26.66027312 20.20837741 28.55871674 21.02734375 30.45703125 C21.54167969 31.65972656 22.05601562 32.86242187 22.5859375 34.1015625 C23.0504834 35.18775879 23.5150293 36.27395508 23.99365234 37.39306641 C25 40 25 40 25 42 C22.69 42 20.38 42 18 42 C16.68 39.03 15.36 36.06 14 33 C6.74 32.67 -0.52 32.34 -8 32 C-8.99 35.3 -9.98 38.6 -11 42 C-13.31 42 -15.62 42 -18 42 C-17.34774357 37.8037026 -15.9440313 34.31220474 -14.19921875 30.44921875 C-13.92157181 29.83158157 -13.64392487 29.2139444 -13.35786438 28.57759094 C-12.77102623 27.27467402 -12.18171792 25.97286717 -11.59008789 24.67211914 C-10.69604246 22.70628324 -9.80925759 20.73730751 -8.92382812 18.76757812 C-6.07399517 12.44686797 -3.16696022 6.16970769 0 0 Z " fill="#499265" transform="translate(491,666)"/>
<path d="M0 0 C2.31 0 4.62 0 7 0 C7 5.94 7 11.88 7 18 C13.93 18 20.86 18 28 18 C28 12.06 28 6.12 28 0 C30.31 0 32.62 0 35 0 C35 13.86 35 27.72 35 42 C32.69 42 30.38 42 28 42 C28 36.39 28 30.78 28 25 C21.07 25 14.14 25 7 25 C7 30.61 7 36.22 7 42 C4.69 42 2.38 42 0 42 C0 28.14 0 14.28 0 0 Z " fill="#4C9667" transform="translate(576,666)"/>
<path d="M0 0 C10.89 0 21.78 0 33 0 C33 1.98 33 3.96 33 6 C28.71 6 24.42 6 20 6 C20 17.88 20 29.76 20 42 C17.69 42 15.38 42 13 42 C13 30.12 13 18.24 13 6 C8.71 6 4.42 6 0 6 C0 4.02 0 2.04 0 0 Z " fill="#489163" transform="translate(525,666)"/>
<path d="M0 0 C13.20745118 -0.49373649 13.20745118 -0.49373649 16.890625 1.80078125 C19.80114876 4.83527176 20.07305252 6.83600622 20 11 C18.23358828 13.80189446 16.96950178 15.51524911 14 17 C9.33091139 17.13996069 4.67201378 17.04247285 0 17 C0 11.39 0 5.78 0 0 Z " fill="#F2FBF4" transform="translate(436,672)"/>
<path d="M0 0 C2.09989037 2.09989037 2.80708074 3.57208894 3.9453125 6.28125 C4.29980469 7.12300781 4.65429688 7.96476563 5.01953125 8.83203125 C5.56673828 10.15267578 5.56673828 10.15267578 6.125 11.5 C6.49753906 12.38042969 6.87007813 13.26085937 7.25390625 14.16796875 C10 20.73646406 10 20.73646406 10 23 C3.73 23 -2.54 23 -9 23 C-8.30422342 19.5211171 -7.71797186 16.99336689 -6.40625 13.828125 C-6.09816406 13.08175781 -5.79007812 12.33539062 -5.47265625 11.56640625 C-5.15167969 10.80199219 -4.83070313 10.03757812 -4.5 9.25 C-4.17902344 8.47011719 -3.85804688 7.69023438 -3.52734375 6.88671875 C-1.13778832 1.13778832 -1.13778832 1.13778832 0 0 Z " fill="#F1F4F6" transform="translate(461,582)"/>
<path d="M0 0 C0.99 0.495 0.99 0.495 2 1 C0.68 2.65 -0.64 4.3 -2 6 C6.91 6 15.82 6 25 6 C25 18.87 25 31.74 25 45 C-8 45 -41 45 -75 45 C-70.5 36 -70.5 36 -67.75 32 C-67.22921875 31.236875 -66.7084375 30.47375 -66.171875 29.6875 C-65.78515625 29.130625 -65.3984375 28.57375 -65 28 C-64.67 28.99 -64.34 29.98 -64 31 C-65.3381439 33.60938061 -66.86523208 35.83029224 -68.6875 38.125 C-70.28673117 40.0281611 -70.28673117 40.0281611 -70 43 C-23.47 43.495 -23.47 43.495 24 44 C23.67 32.12 23.34 20.24 23 8 C10.13 7.505 10.13 7.505 -3 7 C-2 2 -2 2 0 0 Z " fill="#5F91AE" transform="translate(466,458)"/>
<path d="M0 0 C4.80546679 -0.07405295 9.6106029 -0.12855497 14.41650391 -0.16479492 C16.05197941 -0.17989911 17.68741429 -0.20038389 19.32275391 -0.22631836 C21.67100024 -0.26263145 24.01871205 -0.27970932 26.3671875 -0.29296875 C27.10057343 -0.30845261 27.83395935 -0.32393646 28.58956909 -0.33988953 C30.65185547 -0.34057617 30.65185547 -0.34057617 34 0 C36 3 36 3 35.6875 5.625 C35 8 35 8 34 9 C31.98035801 9.07244053 29.95832876 9.08377188 27.9375 9.0625 C26.83277344 9.05347656 25.72804688 9.04445313 24.58984375 9.03515625 C23.73519531 9.02355469 22.88054688 9.01195312 22 9 C22.00785522 10.11858398 22.00785522 10.11858398 22.01586914 11.25976562 C22.03679239 14.67316834 22.04970873 18.08655751 22.0625 21.5 C22.07087891 22.67304687 22.07925781 23.84609375 22.08789062 25.0546875 C22.10497844 31.13794882 21.94502752 36.98754144 21 43 C20.67 43 20.34 43 20 43 C20 31.12 20 19.24 20 7 C24.29 7 28.58 7 33 7 C33 5.02 33 3.04 33 1 C22.11 1 11.22 1 0 1 C0 0.67 0 0.34 0 0 Z " fill="#D6F0E1" transform="translate(525,665)"/>
<path d="M0 0 C4.17219477 4.94301081 5.78098808 11.00267049 8 17 C3.05 17 -1.9 17 -7 17 C-6.02412745 14.35290841 -5.04447855 11.70732553 -4.0625 9.0625 C-3.78470703 8.30775391 -3.50691406 7.55300781 -3.22070312 6.77539062 C-1.11328125 1.11328125 -1.11328125 1.11328125 0 0 Z " fill="#F3FDF7" transform="translate(494,674)"/>
<path d="M0 0 C0 14.52 0 29.04 0 44 C-0.33 44 -0.66 44 -1 44 C-1 30.14 -1 16.28 -1 2 C-3.31 2 -5.62 2 -8 2 C-8 7.94 -8 13.88 -8 20 C-14.93 20 -21.86 20 -29 20 C-29 14.39 -29 8.78 -29 3 C-28.67 3 -28.34 3 -28 3 C-28 8.28 -28 13.56 -28 19 C-21.73 19 -15.46 19 -9 19 C-9 12.73 -9 6.46 -9 0 C-7 -1 -7 -1 0 0 Z " fill="#BDE7CD" transform="translate(612,664)"/>
<path d="M0 0 C0.66 0 1.32 0 2 0 C3.625 2.5 3.625 2.5 5 5 C4.236875 4.979375 3.47375 4.95875 2.6875 4.9375 C-0.10185786 4.87057159 -0.10185786 4.87057159 -3 6 C-3.69964489 7.31632794 -4.36300973 8.65223681 -5 10 C-6.48046875 11.640625 -6.48046875 11.640625 -8.1875 13.25 C-11.30916966 16.28174502 -14.18308772 19.44008804 -17.0234375 22.734375 C-20.93984066 27.22353277 -24.98192417 31.60194516 -29 36 C-29.99 35.34 -30.98 34.68 -32 34 C-31.319375 33.505 -30.63875 33.01 -29.9375 32.5 C-27.60720455 30.51676983 -25.79369974 28.69109497 -23.828125 26.38671875 C-19.28106745 21.13226154 -14.48885675 16.1223039 -9.69726562 11.09179688 C-6.88317142 8.12240537 -4.16029974 5.20481272 -1.63671875 1.98046875 C-1.09660156 1.32691406 -0.55648438 0.67335938 0 0 Z " fill="#E3F9F9" transform="translate(511,411)"/>
<path d="M0 0 C3.62325245 1.58951113 4.64593137 4.74731895 6.140625 8.23828125 C7.25241524 11.52531326 7.81357089 14.43699327 8.0390625 17.89453125 C6.14238186 15.04951028 4.80642772 12.3215324 3.4140625 9.20703125 C2.96804688 8.21316406 2.52203125 7.21929688 2.0625 6.1953125 C1.72476562 5.43605469 1.38703125 4.67679688 1.0390625 3.89453125 C-1.2709375 3.89453125 -3.5809375 3.89453125 -5.9609375 3.89453125 C-8.6009375 9.83453125 -11.2409375 15.77453125 -13.9609375 21.89453125 C-15.39748091 17.58490101 -13.925236 14.86488921 -11.96875 10.8671875 C-11.27816356 9.51373889 -10.57705871 8.16558168 -9.86328125 6.82421875 C-8.88191218 4.903222 -8.88191218 4.903222 -8.46484375 2.71484375 C-8.29855469 2.11414063 -8.13226563 1.5134375 -7.9609375 0.89453125 C-5.2752248 -0.4483251 -2.94035919 -0.40095807 0 0 Z " fill="#E2FAEB" transform="translate(496.9609375,663.10546875)"/>
<path d="M0 0 C0.99 0.33 1.98 0.66 3 1 C3.6875 3.0625 3.6875 3.0625 4 5 C4.80518066 4.96970703 5.61036133 4.93941406 6.43994141 4.90820312 C9.5002537 4.79432289 12.56064153 4.68280441 15.62109375 4.57275391 C17.56777274 4.5020777 19.51435719 4.42881241 21.4609375 4.35546875 C29.98103571 4.05117953 38.47500977 3.9405809 47 4 C47.33 2.68 47.66 1.36 48 0 C51 3.75 51 3.75 51 6 C35.16 6 19.32 6 3 6 C2.01 4.02 1.02 2.04 0 0 Z " fill="#9DBF7E" transform="translate(641,497)"/>
<path d="M0 0 C0.66 0 1.32 0 2 0 C1.49396008 2.16874252 1.00016187 3.99967627 0 6 C-15.84 6 -31.68 6 -48 6 C-47.34 4.35 -46.68 2.7 -46 1 C-45.67 2.32 -45.34 3.64 -45 5 C-30.81 4.67 -16.62 4.34 -2 4 C-1.34 2.68 -0.68 1.36 0 0 Z " fill="#385C7C" transform="translate(380,497)"/>
<path d="M0 0 C0.66 0.33 1.32 0.66 2 1 C-3.84712234 10.44166475 -9.76671874 19.80678071 -16 29 C-17 26 -17 26 -16.22265625 24.17578125 C-15.1484375 22.45052083 -14.07421875 20.72526042 -13 19 C-12.34 19 -11.68 19 -11 19 C-11 18.01 -11 17.02 -11 16 C-10.34 16 -9.68 16 -9 16 C-8.855625 15.38125 -8.71125 14.7625 -8.5625 14.125 C-8 12 -8 12 -7 10 C-6.34 10 -5.68 10 -5 10 C-5 9.01 -5 8.02 -5 7 C-4.34 7 -3.68 7 -3 7 C-3 6.01 -3 5.02 -3 4 C-2.34 4 -1.68 4 -1 4 C-0.67 2.68 -0.34 1.36 0 0 Z " fill="#E1FAFA" transform="translate(506,321)"/>
<path d="M0 0 C0.66 0 1.32 0 2 0 C1.41794855 3.13360256 0.56684546 4.77102521 -1.625 7.0625 C-5.06251411 10.88932293 -7.69619843 15.07635008 -10.38671875 19.44921875 C-11.82777001 21.72768479 -13.34931447 23.8705658 -15 26 C-15.66 25.67 -16.32 25.34 -17 25 C-15.10614453 22.14451646 -13.20955144 19.29086108 -11.3125 16.4375 C-10.78205078 15.63763672 -10.25160156 14.83777344 -9.70507812 14.01367188 C-8.14559936 11.66967005 -6.57570032 9.33312282 -5 7 C-4.52481934 6.2898877 -4.04963867 5.57977539 -3.56005859 4.84814453 C-2.4258043 3.19487413 -1.21965232 1.5913152 0 0 Z " fill="#76B5B7" transform="translate(511,317)"/>
<path d="M0 0 C0.66 0.33 1.32 0.66 2 1 C-2.455 11.395 -2.455 11.395 -7 22 C-4.69 22 -2.38 22 0 22 C0 22.33 0 22.66 0 23 C-2.64 23 -5.28 23 -8 23 C-7.71311275 15.99995111 -6.49595688 11.08973134 -3 5 C-2.34 5 -1.68 5 -1 5 C-0.67 3.35 -0.34 1.7 0 0 Z " fill="#D9F3E2" transform="translate(480,686)"/>
<path d="M0 0 C0.99 0.33 1.98 0.66 3 1 C1.04596384 4.12770645 -0.91395323 7.25168523 -2.875 10.375 C-3.43058594 11.26445312 -3.98617188 12.15390625 -4.55859375 13.0703125 C-5.09355469 13.92109375 -5.62851562 14.771875 -6.1796875 15.6484375 C-6.67194824 16.43395996 -7.16420898 17.21948242 -7.67138672 18.02880859 C-9 20 -9 20 -11 22 C-11.3125 19.875 -11.3125 19.875 -11 17 C-9.37873325 14.96302383 -7.71140469 12.96185416 -6 11 C-5.14720662 8.78264561 -5.14720662 8.78264561 -5 7 C-4.34 7 -3.68 7 -3 7 C-3 6.34 -3 5.68 -3 5 C-2.34 5 -1.68 5 -1 5 C-0.67 3.35 -0.34 1.7 0 0 Z " fill="#386085" transform="translate(422,432)"/>
<path d="M0 0 C0.66 0 1.32 0 2 0 C0.41467191 4.55564061 -1.99003081 8.31475769 -4.625 12.3125 C-5.04523438 12.95767578 -5.46546875 13.60285156 -5.8984375 14.26757812 C-6.92838241 15.84760724 -7.96365628 17.42416047 -9 19 C-9.61328125 17.203125 -9.61328125 17.203125 -10 15 C-8.1875 11.75 -8.1875 11.75 -6 9 C-5.34 9 -4.68 9 -4 9 C-3.7834375 7.824375 -3.7834375 7.824375 -3.5625 6.625 C-3 4 -3 4 -2 2 C-1.34 2 -0.68 2 0 2 C0 1.34 0 0.68 0 0 Z " fill="#3B6288" transform="translate(435,413)"/>
<path d="M0 0 C0.66 1.32 1.32 2.64 2 4 C1.43410156 4.69867188 0.86820312 5.39734375 0.28515625 6.1171875 C-0.44832031 7.02726562 -1.18179687 7.93734375 -1.9375 8.875 C-2.66839844 9.77992188 -3.39929688 10.68484375 -4.15234375 11.6171875 C-6.0036252 13.84502747 -6.0036252 13.84502747 -7 16 C-7.99 15.67 -8.98 15.34 -10 15 C-5.05 7.575 -5.05 7.575 0 0 Z " fill="#5E9AB9" transform="translate(412,469)"/>
<path d="M0 0 C0.66 0 1.32 0 2 0 C0.86581302 6.12460971 -3.05573892 10.41612901 -7 15 C-7.66 14.67 -8.32 14.34 -9 14 C-7.55008333 11.66103978 -6.09074592 9.32900732 -4.625 7 C-4.2125 6.33226562 -3.8 5.66453125 -3.375 4.9765625 C-2.30339045 3.28272806 -1.15669501 1.63691136 0 0 Z " fill="#366187" transform="translate(353,469)"/>
<path d="M0 0 C0.66 0 1.32 0 2 0 C0.51364884 4.21654356 -1.61249159 7.62478605 -4.125 11.3125 C-4.84945313 12.38113281 -5.57390625 13.44976562 -6.3203125 14.55078125 C-7.15175781 15.76314453 -7.15175781 15.76314453 -8 17 C-8.33 16.01 -8.66 15.02 -9 14 C-7.9375 11.875 -7.9375 11.875 -6 9 C-5.27296875 7.84951172 -5.27296875 7.84951172 -4.53125 6.67578125 C-1.41036953 1.80323012 -1.41036953 1.80323012 0 0 Z " fill="#E1FAFA" transform="translate(487,350)"/>
<path d="M0 0 C0 0.66 0 1.32 0 2 C-2.64 2 -5.28 2 -8 2 C-8 7.61 -8 13.22 -8 19 C-8.33 19 -8.66 19 -9 19 C-9 12.73 -9 6.46 -9 0 C-5.93109813 -1.53445094 -3.29905734 -0.54984289 0 0 Z " fill="#E6FAEF" transform="translate(612,664)"/>
<path d="M0 0 C1.32421875 2.58203125 1.32421875 2.58203125 2.6875 5.8125 C3.14511719 6.87082031 3.60273438 7.92914062 4.07421875 9.01953125 C4.99492545 11.98366296 5.12864571 13.17496557 4 16 C3.64808594 15.00097656 3.29617188 14.00195312 2.93359375 12.97265625 C2.43640034 11.66869618 1.93761872 10.36534091 1.4375 9.0625 C1.20998047 8.40314453 0.98246094 7.74378906 0.74804688 7.06445312 C-0.05047684 4.86922904 -0.05047684 4.86922904 -2 2 C-5.60706647 0.93546156 -5.60706647 0.93546156 -9 1 C-9 0.67 -9 0.34 -9 0 C-2.25 -1.125 -2.25 -1.125 0 0 Z " fill="#D4EFDE" transform="translate(500,665)"/>
<path d="M0 0 C0.33 0.99 0.66 1.98 1 3 C-0.33468531 5.60263635 -1.83649347 7.80015868 -3.6875 10.0625 C-5.37389876 12.16191152 -5.37389876 12.16191152 -5 16 C-6.32 15.67 -7.64 15.34 -9 15 C-6.20274084 9.8411204 -3.341475 4.82657501 0 0 Z " fill="#629CBA" transform="translate(401,486)"/>
<path d="M0 0 C0.66 0.99 1.32 1.98 2 3 C-2.455 9.93 -2.455 9.93 -7 17 C-7.33 15.68 -7.66 14.36 -8 13 C-7.34 13 -6.68 13 -6 13 C-5.896875 12.443125 -5.79375 11.88625 -5.6875 11.3125 C-4.85821592 8.5230899 -3.65700944 6.3860936 -2 4 C-1.34 4 -0.68 4 0 4 C0 2.68 0 1.36 0 0 Z " fill="#3E648A" transform="translate(405,458)"/>
<path d="M0 0 C0.66 0.33 1.32 0.66 2 1 C-1.3 5.95 -4.6 10.9 -8 16 C-8.33 14.68 -8.66 13.36 -9 12 C-8.34 12 -7.68 12 -7 12 C-6.34 10.02 -5.68 8.04 -5 6 C-4.34 6 -3.68 6 -3 6 C-2.814375 5.071875 -2.814375 5.071875 -2.625 4.125 C-2 2 -2 2 0 0 Z " fill="#DFF8FC" transform="translate(406,476)"/>
<path d="M0 0 C0.99 0.33 1.98 0.66 3 1 C1.87749844 2.62672685 0.75191267 4.25132582 -0.375 5.875 C-1.31472656 7.23238281 -1.31472656 7.23238281 -2.2734375 8.6171875 C-4 11 -4 11 -6 13 C-5.58221009 7.2902045 -3.42453429 4.39042858 0 0 Z " fill="#E1F8EA" transform="translate(573,414)"/>
<path d="M0 0 C2.94194821 2.73905523 5.33889284 5.30865076 7 9 C6.3125 11.25 6.3125 11.25 5 13 C4.01 13.495 4.01 13.495 3 14 C3.061875 12.948125 3.12375 11.89625 3.1875 10.8125 C2.9900277 6.79722982 2.220756 5.23860249 0 2 C0 1.34 0 0.68 0 0 Z " fill="#5C93B1" transform="translate(466,443)"/>
<path d="M0 0 C3 3.75 3 3.75 3 6 C2.01 6 1.02 6 0 6 C-0.66 7.32 -1.32 8.64 -2 10 C-2.66 10 -3.32 10 -4 10 C-3.52449439 8.51965236 -3.04448784 7.04074979 -2.5625 5.5625 C-2.29566406 4.73878906 -2.02882813 3.91507813 -1.75390625 3.06640625 C-1 1 -1 1 0 0 Z " fill="#D2F1DE" transform="translate(494,674)"/>
<path d="M0 0 C0.66 0.66 1.32 1.32 2 2 C0.02 4.97 -1.96 7.94 -4 11 C-5 7 -5 7 -4.00390625 5.078125 C-3.52824219 4.47484375 -3.05257813 3.8715625 -2.5625 3.25 C-2.08941406 2.63640625 -1.61632812 2.0228125 -1.12890625 1.390625 C-0.75636719 0.93171875 -0.38382812 0.4728125 0 0 Z " fill="#DEF5FA" transform="translate(424,447)"/>
<path d="M0 0 C0.33 0.99 0.66 1.98 1 3 C-0.1875 5.3125 -0.1875 5.3125 -2 8 C-2.721875 9.093125 -3.44375 10.18625 -4.1875 11.3125 C-4.785625 12.199375 -5.38375 13.08625 -6 14 C-6.66 13.67 -7.32 13.34 -8 13 C-5.36 8.71 -2.72 4.42 0 0 Z " fill="#5D96B6" transform="translate(421,455)"/>
<path d="M0 0 C0.66 0 1.32 0 2 0 C1.67 1.98 1.34 3.96 1 6 C3.64 6 6.28 6 9 6 C9 6.33 9 6.66 9 7 C5.37 7 1.74 7 -2 7 C-1.34 4.69 -0.68 2.38 0 0 Z " fill="#252C3C" transform="translate(433,621)"/>
<path d="M0 0 C0.66 0.33 1.32 0.66 2 1 C-0.31 4.63 -2.62 8.26 -5 12 C-6 8 -6 8 -4.1875 4.75 C-3.465625 3.8425 -2.74375 2.935 -2 2 C-1.34 2 -0.68 2 0 2 C0 1.34 0 0.68 0 0 Z " fill="#E0F8E9" transform="translate(563,430)"/>
<path d="M0 0 C1 4 1 4 -0.21484375 6.140625 C-0.78332031 6.83671875 -1.35179687 7.5328125 -1.9375 8.25 C-2.50339844 8.95640625 -3.06929688 9.6628125 -3.65234375 10.390625 C-4.31943359 11.18726563 -4.31943359 11.18726563 -5 12 C-5.66 11.67 -6.32 11.34 -7 11 C-4.69 7.37 -2.38 3.74 0 0 Z " fill="#5C96B8" transform="translate(440,426)"/>
<path d="M0 0 C0.33 1.32 0.66 2.64 1 4 C-0.28062485 5.7074998 -1.61767557 7.37373596 -3 9 C-3.77833534 11.18214568 -3.77833534 11.18214568 -4 13 C-4.66 12.01 -5.32 11.02 -6 10 C-4.02 6.7 -2.04 3.4 0 0 Z " fill="#A1C285" transform="translate(587,395)"/>
<path d="M0 0 C0.99 0.33 1.98 0.66 3 1 C0.69 4.63 -1.62 8.26 -4 12 C-5 9 -5 9 -4.00390625 6.73828125 C-3.52824219 5.93777344 -3.05257812 5.13726562 -2.5625 4.3125 C-2.08941406 3.50425781 -1.61632812 2.69601562 -1.12890625 1.86328125 C-0.75636719 1.24839844 -0.38382813 0.63351562 0 0 Z " fill="#EEFBE2" transform="translate(601,370)"/>
<path d="M0 0 C0.66 0 1.32 0 2 0 C0.6302836 3.99500618 -1.25722422 6.80009492 -4 10 C-4 8.35 -4 6.7 -4 5 C-2.68 4.34 -1.36 3.68 0 3 C0 2.01 0 1.02 0 0 Z " fill="#DAF3F9" transform="translate(441,421)"/>
<path d="M0 0 C0.66 0.99 1.32 1.98 2 3 C0.35 5.31 -1.3 7.62 -3 10 C-3.33 8.68 -3.66 7.36 -4 6 C-3.34 6 -2.68 6 -2 6 C-1.7834375 5.071875 -1.7834375 5.071875 -1.5625 4.125 C-1 2 -1 2 0 0 Z " fill="#3A6386" transform="translate(441,403)"/>
<path d="M0 0 C0.75 1.6875 0.75 1.6875 1 4 C-0.8125 6.5625 -0.8125 6.5625 -3 9 C-3.66 9.99 -4.32 10.98 -5 12 C-4.42365861 7.24518354 -2.44931479 4.02951788 0 0 Z " fill="#7FBABF" transform="translate(459,396)"/>
<path d="M0 0 C0.66 0 1.32 0 2 0 C0.55049545 3.7910119 -1.15172566 7.3874638 -3 11 C-3.75 9.4375 -3.75 9.4375 -4 7 C-2.86915563 4.49713591 -1.47860484 2.32992278 0 0 Z " fill="#E0F6E9" transform="translate(554,443)"/>
</svg>
